<?xml version="1.0" encoding="UTF-8" standalone="no"?>
<svg width="1200" height="500" version="1.1" xmlns="http://www.w3.org/2000/svg" desc="Created with imagetracer.js version 1.2.6" ><path fill="rgb(107,181,237)" stroke="rgb(107,181,237)" stroke-width="1" opacity="1" d="M 269.5 82 Q 274.2 80.8 275.5 83 L 276.5 82 L 298.5 82 L 299.5 83 L 315.5 84 L 336.5 89 L 360.5 98 Q 394.3 114.2 418 140.5 Q 441.8 165.7 455 201.5 L 461 221.5 L 464 238.5 L 464 246.5 L 465 247.5 L 465 277.5 L 464 278.5 L 462 299.5 L 459 311.5 Q 452.9 332.9 443 350.5 Q 425.9 380.4 400.5 402 L 369.5 423 Q 353.4 431.4 334.5 437 L 304.5 443 L 270.5 443 L 270 440.5 L 271 437.5 L 269 435.5 Q 272.5 434 270 432.5 L 271 429.5 L 269 427.5 Q 272.5 426 270 424.5 L 271 421.5 L 269 419.5 Q 272.5 418 270 416.5 L 271 413.5 L 269 411.5 Q 272.5 410 270 408.5 L 271 405.5 L 269 403.5 Q 272.5 402 270 400.5 L 271 397.5 L 269 395.5 Q 272.5 394 270 392.5 L 271 389.5 L 269 387.5 Q 272.5 386 270 384.5 L 271 381.5 L 269 379.5 Q 272.5 378 270 376.5 L 271 373.5 L 269 371.5 Q 272.5 370 270 368.5 L 271 365.5 L 269 363.5 Q 272.5 362 270 360.5 L 271 357.5 L 269 355.5 Q 272.5 354 270 352.5 L 271 349.5 L 269 347.5 Q 272.5 346 270 344.5 L 271 341.5 L 269 339.5 Q 272.5 338 270 336.5 L 271 333.5 L 269 331.5 Q 272.5 330 270 328.5 L 271 325.5 L 269 323.5 Q 272.5 322 270 320.5 L 271 317.5 L 269 315.5 Q 272.5 314 270 312.5 L 271 309.5 L 269 307.5 Q 272.5 306 270 304.5 L 271 301.5 L 269 299.5 Q 272.5 298 270 296.5 L 271 293.5 L 269 291.5 Q 272.5 290 270 288.5 L 271 285.5 L 269 283.5 Q 272.5 282 270 280.5 L 271 277.5 L 269 275.5 Q 272.5 274 270 272.5 L 271 269.5 L 269 267.5 Q 272.5 266 270 264.5 L 271 261.5 L 269 259.5 Q 272.5 258 270 256.5 L 269 253.5 Q 272.5 252 270 250.5 L 271 247.5 L 269 245.5 Q 272.5 244 270 242.5 L 271 239.5 L 269 237.5 Q 272.5 236 270 234.5 L 271 231.5 L 269.5 229 L 324 232 L 317 279.5 L 313 297.5 L 313 303.5 L 312 304.5 L 311 322.5 L 310 323.5 L 310 345.5 L 314 364.5 Q 318 375.5 326.5 382 L 340.5 388 L 355.5 388 Q 372.5 384 381 371.5 L 387 362.5 L 396 343.5 L 402 318 L 395 317 Q 392.6 330.4 383.5 338 L 370.5 344 L 357.5 344 Q 345.6 341.4 340 332.5 L 334 320.5 L 331 310.5 L 331 305.5 L 329 298.5 L 329 272.5 L 330 271.5 L 330 259.5 L 331 258.5 L 331 248.5 L 332 247.5 L 333 233 L 358.5 233 L 362.5 232 Q 373.2 228.2 379 219.5 Q 394.4 194.1 399 159 L 392.5 157 Q 389.1 167.1 381.5 173 Q 374.6 176.6 362.5 175 L 361.5 174 L 323.5 173 L 322.5 172 L 283.5 171 L 282.5 170 L 272.5 170 L 271.5 169 Q 270 171.5 264.5 170 L 264.5 169 Q 269.8 170.3 271 167.5 L 269 165.5 Q 272.5 164 270 162.5 L 271 159.5 L 269 157.5 Q 272.5 156 270 154.5 L 271 151.5 L 269 149.5 Q 272.5 148 270 146.5 L 271 143.5 L 269 141.5 Q 272.5 140 270 138.5 L 271 135.5 L 269 133.5 Q 272.5 132 270 130.5 L 271 127.5 L 269 125.5 Q 272.5 124 270 122.5 L 271 119.5 L 269 117.5 Q 272.5 116 270 114.5 L 271 111.5 L 269 109.5 Q 272.5 108 270 106.5 L 271 103.5 L 269 101.5 Q 272.5 100 270 98.5 L 271 95.5 L 269 93.5 Q 272.5 92 270 90.5 L 271 87.5 L 269 85.5 L 270.5 83 L 269.5 82 Z " /><path fill="rgb(107,181,237)" stroke="rgb(107,181,237)" stroke-width="1" opacity="1" d="M 259.5 83 L 262 83.5 L 259.5 84 L 259.5 83 Z " /><path fill="rgb(107,181,237)" stroke="rgb(107,181,237)" stroke-width="1" opacity="1" d="M 160.5 130 L 154.5 137 L 160.5 130 Z " /><path fill="rgb(107,181,237)" stroke="rgb(107,181,237)" stroke-width="1" opacity="1" d="M 241.5 168 L 245 168.5 L 241.5 169 L 241.5 168 Z " /><path fill="rgb(107,181,237)" stroke="rgb(107,181,237)" stroke-width="1" opacity="1" d="M 253.5 228 L 254 280.5 L 253 280.5 L 253.5 228 Z " /><path fill="rgb(107,181,237)" stroke="rgb(107,181,237)" stroke-width="1" opacity="1" d="M 257.5 228 L 262 228.5 L 257.5 229 L 257.5 228 Z " /><path fill="rgb(107,181,237)" stroke="rgb(107,181,237)" stroke-width="1" opacity="1" d="M 772.5 256 L 1085.5 256 L 1086 256.5 L 1086 269 L 766.5 269 L 765 267.5 L 765.5 257 L 767.5 257 L 772.5 256 Z " /><path fill="rgb(107,181,237)" stroke="rgb(107,181,237)" stroke-width="1" opacity="1" d="M 252.5 312 L 253 317.5 L 252 317.5 L 252.5 312 Z " /><path fill="rgb(107,181,237)" stroke="rgb(107,181,237)" stroke-width="1" opacity="1" d="M 251.5 331 L 252 333.5 L 251 333.5 L 251.5 331 Z " /><path fill="rgb(107,181,237)" stroke="rgb(107,181,237)" stroke-width="1" opacity="1" d="M 161.5 395 L 163.5 398 L 161.5 395 Z " /><path fill="rgb(107,181,237)" stroke="rgb(107,181,237)" stroke-width="1" opacity="1" d="M 265.5 442 L 268 442.5 L 265.5 443 L 265.5 442 Z " /><path fill="rgb(247,238,234)" stroke="rgb(247,238,234)" stroke-width="1" opacity="1" d="M 265.5 82 L 269 82.5 L 265.5 83 L 265.5 82 Z " /><path fill="rgb(247,238,234)" stroke="rgb(247,238,234)" stroke-width="1" opacity="1" d="M 299.5 82 L 303 82.5 L 299.5 83 L 299.5 82 Z " /><path fill="rgb(247,238,234)" stroke="rgb(247,238,234)" stroke-width="1" opacity="1" d="M 309.5 83 L 312 83.5 L 309.5 84 L 309.5 83 Z " /><path fill="rgb(247,238,234)" stroke="rgb(247,238,234)" stroke-width="1" opacity="1" d="M 388.5 114 L 389.5 116 L 388.5 114 Z " /><path fill="rgb(247,238,234)" stroke="rgb(247,238,234)" stroke-width="1" opacity="1" d="M 175.5 117 L 174.5 119 L 175.5 117 Z " /><path fill="rgb(247,238,234)" stroke="rgb(247,238,234)" stroke-width="1" opacity="1" d="M 170.5 121 L 168.5 124 L 170.5 121 Z " /><path fill="rgb(247,238,234)" stroke="rgb(247,238,234)" stroke-width="1" opacity="1" d="M 401.5 124 L 403.5 127 L 401.5 124 Z " /><path fill="rgb(247,238,234)" stroke="rgb(247,238,234)" stroke-width="1" opacity="1" d="M 164.5 126 L 161.5 130 L 164.5 126 Z " /><path fill="rgb(247,238,234)" stroke="rgb(247,238,234)" stroke-width="1" opacity="1" d="M 153.5 137 L 147.5 144 L 153.5 137 Z " /><path fill="rgb(247,238,234)" stroke="rgb(247,238,234)" stroke-width="1" opacity="1" d="M 418.5 141 L 421.5 145 L 418.5 141 Z " /><path fill="rgb(247,238,234)" stroke="rgb(247,238,234)" stroke-width="1" opacity="1" d="M 425.5 149 L 426.5 151 L 425.5 149 Z " /><path fill="rgb(247,238,234)" stroke="rgb(247,238,234)" stroke-width="1" opacity="1" d="M 140.5 152 L 139.5 154 L 140.5 152 Z " /><path fill="rgb(247,238,234)" stroke="rgb(247,238,234)" stroke-width="1" opacity="1" d="M 135.5 159 L 134.5 161 L 135.5 159 Z " /><path fill="rgb(247,238,234)" stroke="rgb(247,238,234)" stroke-width="1" opacity="1" d="M 922.5 160 L 923 232.5 L 921.5 234 L 910.5 234 L 910.5 233 L 921.5 233 L 922 232.5 L 922.5 160 Z " /><path fill="rgb(247,238,234)" stroke="rgb(247,238,234)" stroke-width="1" opacity="1" d="M 133.5 162 L 132.5 164 L 133.5 162 Z " /><path fill="rgb(247,238,234)" stroke="rgb(247,238,234)" stroke-width="1" opacity="1" d="M 131.5 165 L 130.5 167 L 131.5 165 Z " /><path fill="rgb(247,238,234)" stroke="rgb(247,238,234)" stroke-width="1" opacity="1" d="M 711.5 179 L 712 187.5 L 711 187.5 L 711.5 179 Z " /><path fill="rgb(247,238,234)" stroke="rgb(247,238,234)" stroke-width="1" opacity="1" d="M 754.5 179 L 755.5 181 L 754.5 179 Z " /><path fill="rgb(247,238,234)" stroke="rgb(247,238,234)" stroke-width="1" opacity="1" d="M 741.5 181 L 742.5 183 L 741.5 181 Z " /><path fill="rgb(247,238,234)" stroke="rgb(247,238,234)" stroke-width="1" opacity="1" d="M 778.5 181 L 777.5 183 L 778.5 181 Z " /><path fill="rgb(247,238,234)" stroke="rgb(247,238,234)" stroke-width="1" opacity="1" d="M 757.5 183 L 758.5 185 L 757.5 183 Z " /><path fill="rgb(247,238,234)" stroke="rgb(247,238,234)" stroke-width="1" opacity="1" d="M 791.5 183 L 790.5 185 L 791.5 183 Z " /><path fill="rgb(247,238,234)" stroke="rgb(247,238,234)" stroke-width="1" opacity="1" d="M 744.5 185 L 745.5 187 L 744.5 185 Z " /><path fill="rgb(247,238,234)" stroke="rgb(247,238,234)" stroke-width="1" opacity="1" d="M 775.5 185 L 774.5 187 L 775.5 185 Z " /><path fill="rgb(247,238,234)" stroke="rgb(247,238,234)" stroke-width="1" opacity="1" d="M 760.5 187 L 761.5 189 L 760.5 187 Z " /><path fill="rgb(247,238,234)" stroke="rgb(247,238,234)" stroke-width="1" opacity="1" d="M 788.5 187 L 787.5 189 L 788.5 187 Z " /><path fill="rgb(247,238,234)" stroke="rgb(247,238,234)" stroke-width="1" opacity="1" d="M 772.5 189 L 771.5 191 L 772.5 189 Z " /><path fill="rgb(247,238,234)" stroke="rgb(247,238,234)" stroke-width="1" opacity="1" d="M 763.5 191 L 764.5 193 L 763.5 191 Z " /><path fill="rgb(247,238,234)" stroke="rgb(247,238,234)" stroke-width="1" opacity="1" d="M 769.5 193 L 768.5 195 L 769.5 193 Z " /><path fill="rgb(247,238,234)" stroke="rgb(247,238,234)" stroke-width="1" opacity="1" d="M 783.5 194 L 782.5 196 L 783.5 194 Z " /><path fill="rgb(247,238,234)" stroke="rgb(247,238,234)" stroke-width="1" opacity="1" d="M 708.5 196 L 707.5 198 L 708.5 196 Z " /><path fill="rgb(247,238,234)" stroke="rgb(247,238,234)" stroke-width="1" opacity="1" d="M 752.5 196 L 753.5 198 L 752.5 196 Z " /><path fill="rgb(247,238,234)" stroke="rgb(247,238,234)" stroke-width="1" opacity="1" d="M 780.5 198 L 779.5 200 L 780.5 198 Z " /><path fill="rgb(247,238,234)" stroke="rgb(247,238,234)" stroke-width="1" opacity="1" d="M 755.5 200 L 756.5 202 L 755.5 200 Z " /><path fill="rgb(247,238,234)" stroke="rgb(247,238,234)" stroke-width="1" opacity="1" d="M 703.5 201 L 702.5 203 L 703.5 201 Z " /><path fill="rgb(247,238,234)" stroke="rgb(247,238,234)" stroke-width="1" opacity="1" d="M 777.5 202 L 776.5 204 L 777.5 202 Z " /><path fill="rgb(247,238,234)" stroke="rgb(247,238,234)" stroke-width="1" opacity="1" d="M 758.5 204 L 760 206.5 L 759 206.5 L 758.5 204 Z " /><path fill="rgb(247,238,234)" stroke="rgb(247,238,234)" stroke-width="1" opacity="1" d="M 689.5 206 L 692 206.5 L 689.5 207 L 689.5 206 Z " /><path fill="rgb(247,238,234)" stroke="rgb(247,238,234)" stroke-width="1" opacity="1" d="M 755.5 212 L 754.5 214 L 755.5 212 Z " /><path fill="rgb(247,238,234)" stroke="rgb(247,238,234)" stroke-width="1" opacity="1" d="M 752.5 216 L 751.5 218 L 752.5 216 Z " /><path fill="rgb(247,238,234)" stroke="rgb(247,238,234)" stroke-width="1" opacity="1" d="M 767.5 216 L 768.5 218 L 767.5 216 Z " /><path fill="rgb(247,238,234)" stroke="rgb(247,238,234)" stroke-width="1" opacity="1" d="M 765.5 218 L 764.5 220 L 765.5 218 Z " /><path fill="rgb(247,238,234)" stroke="rgb(247,238,234)" stroke-width="1" opacity="1" d="M 749.5 220 L 748.5 222 L 749.5 220 Z " /><path fill="rgb(247,238,234)" stroke="rgb(247,238,234)" stroke-width="1" opacity="1" d="M 770.5 220 L 771.5 222 L 770.5 220 Z " /><path fill="rgb(247,238,234)" stroke="rgb(247,238,234)" stroke-width="1" opacity="1" d="M 762.5 222 L 761.5 224 L 762.5 222 Z " /><path fill="rgb(247,238,234)" stroke="rgb(247,238,234)" stroke-width="1" opacity="1" d="M 786.5 222 L 787.5 224 L 786.5 222 Z " /><path fill="rgb(247,238,234)" stroke="rgb(247,238,234)" stroke-width="1" opacity="1" d="M 746.5 224 L 745.5 226 L 746.5 224 Z " /><path fill="rgb(247,238,234)" stroke="rgb(247,238,234)" stroke-width="1" opacity="1" d="M 773.5 224 L 774.5 226 L 773.5 224 Z " /><path fill="rgb(247,238,234)" stroke="rgb(247,238,234)" stroke-width="1" opacity="1" d="M 789.5 226 L 790.5 228 L 789.5 226 Z " /><path fill="rgb(247,238,234)" stroke="rgb(247,238,234)" stroke-width="1" opacity="1" d="M 743.5 228 L 742.5 230 L 743.5 228 Z " /><path fill="rgb(247,238,234)" stroke="rgb(247,238,234)" stroke-width="1" opacity="1" d="M 776.5 228 L 777.5 230 L 776.5 228 Z " /><path fill="rgb(247,238,234)" stroke="rgb(247,238,234)" stroke-width="1" opacity="1" d="M 792.5 230 L 793.5 232 L 792.5 230 Z " /><path fill="rgb(247,238,234)" stroke="rgb(247,238,234)" stroke-width="1" opacity="1" d="M 105.5 232 L 106 234.5 L 105 234.5 L 105.5 232 Z " /><path fill="rgb(247,238,234)" stroke="rgb(247,238,234)" stroke-width="1" opacity="1" d="M 740.5 232 L 741.5 233 L 754 233.5 L 741.5 234 L 740.5 232 Z " /><path fill="rgb(247,238,234)" stroke="rgb(247,238,234)" stroke-width="1" opacity="1" d="M 901.5 232 L 900.5 234 L 888 233.5 L 900.5 233 L 901.5 232 Z " /><path fill="rgb(247,238,234)" stroke="rgb(247,238,234)" stroke-width="1" opacity="1" d="M 656.5 233 L 669 233.5 L 656.5 234 L 656.5 233 Z " /><path fill="rgb(247,238,234)" stroke="rgb(247,238,234)" stroke-width="1" opacity="1" d="M 721.5 233 L 734 233.5 L 721.5 234 L 721.5 233 Z " /><path fill="rgb(247,238,234)" stroke="rgb(247,238,234)" stroke-width="1" opacity="1" d="M 781.5 233 L 794 233.5 L 781.5 234 L 781.5 233 Z " /><path fill="rgb(247,238,234)" stroke="rgb(247,238,234)" stroke-width="1" opacity="1" d="M 830.5 233 L 842 233.5 L 830.5 234 L 830.5 233 Z " /><path fill="rgb(247,238,234)" stroke="rgb(247,238,234)" stroke-width="1" opacity="1" d="M 104.5 239 L 105 241.5 L 104 241.5 L 104.5 239 Z " /><path fill="rgb(247,238,234)" stroke="rgb(247,238,234)" stroke-width="1" opacity="1" d="M 464.5 244 L 465 246.5 L 464 246.5 L 464.5 244 Z " /><path fill="rgb(247,238,234)" stroke="rgb(247,238,234)" stroke-width="1" opacity="1" d="M 103.5 252 L 104 273.5 L 103 273.5 L 103.5 252 Z " /><path fill="rgb(247,238,234)" stroke="rgb(247,238,234)" stroke-width="1" opacity="1" d="M 1086.5 256 L 1087 268.5 L 1086 268.5 L 1086.5 256 Z " /><path fill="rgb(247,238,234)" stroke="rgb(247,238,234)" stroke-width="1" opacity="1" d="M 464.5 278 L 465 281.5 L 464 281.5 L 464.5 278 Z " /><path fill="rgb(247,238,234)" stroke="rgb(247,238,234)" stroke-width="1" opacity="1" d="M 104.5 283 L 105 285.5 L 104 285.5 L 104.5 283 Z " /><path fill="rgb(247,238,234)" stroke="rgb(247,238,234)" stroke-width="1" opacity="1" d="M 463.5 287 L 464 289.5 L 463 289.5 L 463.5 287 Z " /><path fill="rgb(247,238,234)" stroke="rgb(247,238,234)" stroke-width="1" opacity="1" d="M 931.5 293 L 932 304.5 L 931 304.5 L 931.5 293 Z " /><path fill="rgb(247,238,234)" stroke="rgb(247,238,234)" stroke-width="1" opacity="1" d="M 496.5 294 L 497 366 L 510 366.5 L 497.5 367 L 496 365.5 L 496.5 294 Z " /><path fill="rgb(247,238,234)" stroke="rgb(247,238,234)" stroke-width="1" opacity="1" d="M 961.5 298 L 974 298.5 L 961.5 299 L 961.5 298 Z " /><path fill="rgb(247,238,234)" stroke="rgb(247,238,234)" stroke-width="1" opacity="1" d="M 815.5 305 L 816 322.5 L 815 322.5 L 815.5 305 Z " /><path fill="rgb(247,238,234)" stroke="rgb(247,238,234)" stroke-width="1" opacity="1" d="M 715.5 312 L 716 317 L 712 314.5 L 715 315.5 L 715.5 312 Z " /><path fill="rgb(247,238,234)" stroke="rgb(247,238,234)" stroke-width="1" opacity="1" d="M 728.5 312 L 729 365.5 L 728 365.5 L 728.5 312 Z " /><path fill="rgb(247,238,234)" stroke="rgb(247,238,234)" stroke-width="1" opacity="1" d="M 931.5 312 L 932 366 L 944 366.5 L 932.5 367 L 931 365.5 L 931.5 312 Z " /><path fill="rgb(247,238,234)" stroke="rgb(247,238,234)" stroke-width="1" opacity="1" d="M 563.5 313 L 564.5 315 L 563.5 313 Z " /><path fill="rgb(247,238,234)" stroke="rgb(247,238,234)" stroke-width="1" opacity="1" d="M 688.5 313 L 687.5 315 L 688.5 313 Z " /><path fill="rgb(247,238,234)" stroke="rgb(247,238,234)" stroke-width="1" opacity="1" d="M 1069.5 313 L 1070 320.5 L 1069 320.5 L 1069.5 313 Z " /><path fill="rgb(247,238,234)" stroke="rgb(247,238,234)" stroke-width="1" opacity="1" d="M 574.5 314 L 573.5 316 L 574.5 314 Z " /><path fill="rgb(247,238,234)" stroke="rgb(247,238,234)" stroke-width="1" opacity="1" d="M 626.5 314 L 625.5 316 L 626.5 314 Z " /><path fill="rgb(247,238,234)" stroke="rgb(247,238,234)" stroke-width="1" opacity="1" d="M 904.5 314 L 905.5 316 L 904.5 314 Z " /><path fill="rgb(247,238,234)" stroke="rgb(247,238,234)" stroke-width="1" opacity="1" d="M 538.5 315 L 536.5 318 L 538.5 315 Z " /><path fill="rgb(247,238,234)" stroke="rgb(247,238,234)" stroke-width="1" opacity="1" d="M 658.5 315 L 661.5 319 L 658.5 315 Z " /><path fill="rgb(247,238,234)" stroke="rgb(247,238,234)" stroke-width="1" opacity="1" d="M 780.5 315 L 781.5 317 L 780.5 315 Z " /><path fill="rgb(247,238,234)" stroke="rgb(247,238,234)" stroke-width="1" opacity="1" d="M 1003.5 315 L 1002.5 317 L 1003.5 315 Z " /><path fill="rgb(247,238,234)" stroke="rgb(247,238,234)" stroke-width="1" opacity="1" d="M 566.5 316 L 567.5 318 L 566.5 316 Z " /><path fill="rgb(247,238,234)" stroke="rgb(247,238,234)" stroke-width="1" opacity="1" d="M 684.5 316 L 683.5 318 L 684.5 316 Z " /><path fill="rgb(247,238,234)" stroke="rgb(247,238,234)" stroke-width="1" opacity="1" d="M 875.5 316 L 874.5 318 L 875.5 316 Z " /><path fill="rgb(247,238,234)" stroke="rgb(247,238,234)" stroke-width="1" opacity="1" d="M 746.5 317 L 745.5 319 L 746.5 317 Z " /><path fill="rgb(247,238,234)" stroke="rgb(247,238,234)" stroke-width="1" opacity="1" d="M 783.5 318 L 785.5 321 L 783.5 318 Z " /><path fill="rgb(247,238,234)" stroke="rgb(247,238,234)" stroke-width="1" opacity="1" d="M 998.5 320 L 997.5 322 L 998.5 320 Z " /><path fill="rgb(247,238,234)" stroke="rgb(247,238,234)" stroke-width="1" opacity="1" d="M 1040.5 320 L 1041.5 322 L 1040.5 320 Z " /><path fill="rgb(247,238,234)" stroke="rgb(247,238,234)" stroke-width="1" opacity="1" d="M 547.5 321 L 550 321.5 L 547.5 322 L 547.5 321 Z " /><path fill="rgb(247,238,234)" stroke="rgb(247,238,234)" stroke-width="1" opacity="1" d="M 581.5 321 L 584 321.5 L 581.5 322 L 581.5 321 Z " /><path fill="rgb(247,238,234)" stroke="rgb(247,238,234)" stroke-width="1" opacity="1" d="M 639.5 321 L 643 321.5 L 639.5 322 L 639.5 321 Z " /><path fill="rgb(247,238,234)" stroke="rgb(247,238,234)" stroke-width="1" opacity="1" d="M 743.5 321 L 742.5 323 L 743.5 321 Z " /><path fill="rgb(247,238,234)" stroke="rgb(247,238,234)" stroke-width="1" opacity="1" d="M 763.5 321 L 766 321.5 L 763.5 322 L 763.5 321 Z " /><path fill="rgb(247,238,234)" stroke="rgb(247,238,234)" stroke-width="1" opacity="1" d="M 648.5 323 L 650.5 326 L 648.5 323 Z " /><path fill="rgb(247,238,234)" stroke="rgb(247,238,234)" stroke-width="1" opacity="1" d="M 951.5 323 L 961 323.5 L 951.5 324 L 951.5 323 Z " /><path fill="rgb(247,238,234)" stroke="rgb(247,238,234)" stroke-width="1" opacity="1" d="M 974.5 323 L 987 323.5 L 974.5 324 L 974.5 323 Z " /><path fill="rgb(247,238,234)" stroke="rgb(247,238,234)" stroke-width="1" opacity="1" d="M 539.5 324 L 537.5 327 L 539.5 324 Z " /><path fill="rgb(247,238,234)" stroke="rgb(247,238,234)" stroke-width="1" opacity="1" d="M 574.5 324 L 571.5 328 L 574.5 324 Z " /><path fill="rgb(247,238,234)" stroke="rgb(247,238,234)" stroke-width="1" opacity="1" d="M 631.5 324 L 630.5 326 L 631.5 324 Z " /><path fill="rgb(247,238,234)" stroke="rgb(247,238,234)" stroke-width="1" opacity="1" d="M 710.5 324 L 711.5 326 L 710.5 324 Z " /><path fill="rgb(247,238,234)" stroke="rgb(247,238,234)" stroke-width="1" opacity="1" d="M 886.5 324 L 884.5 327 L 886.5 324 Z " /><path fill="rgb(247,238,234)" stroke="rgb(247,238,234)" stroke-width="1" opacity="1" d="M 1011.5 324 L 1009.5 327 L 1011.5 324 Z " /><path fill="rgb(247,238,234)" stroke="rgb(247,238,234)" stroke-width="1" opacity="1" d="M 1027.5 324 L 1029.5 327 L 1027.5 324 Z " /><path fill="rgb(247,238,234)" stroke="rgb(247,238,234)" stroke-width="1" opacity="1" d="M 904.5 325 L 906.5 328 L 904.5 325 Z " /><path fill="rgb(247,238,234)" stroke="rgb(247,238,234)" stroke-width="1" opacity="1" d="M 605.5 326 L 606 365.5 L 604.5 367 L 593.5 367 L 592 365.5 L 592 331.5 L 593 331.5 L 593 366 L 605 366 L 605.5 326 Z " /><path fill="rgb(247,238,234)" stroke="rgb(247,238,234)" stroke-width="1" opacity="1" d="M 664.5 326 L 665 355.5 L 664 355.5 L 664.5 326 Z " /><path fill="rgb(247,238,234)" stroke="rgb(247,238,234)" stroke-width="1" opacity="1" d="M 1074.5 326 L 1073.5 328 L 1074.5 326 Z " /><path fill="rgb(247,238,234)" stroke="rgb(247,238,234)" stroke-width="1" opacity="1" d="M 621.5 327 L 624 327.5 L 621.5 328 L 621.5 327 Z " /><path fill="rgb(247,238,234)" stroke="rgb(247,238,234)" stroke-width="1" opacity="1" d="M 651.5 328 L 652 330.5 L 651 330.5 L 651.5 328 Z " /><path fill="rgb(247,238,234)" stroke="rgb(247,238,234)" stroke-width="1" opacity="1" d="M 557.5 329 L 558 331.5 L 557 331.5 L 557.5 329 Z " /><path fill="rgb(247,238,234)" stroke="rgb(247,238,234)" stroke-width="1" opacity="1" d="M 715.5 329 L 716 348.5 L 715 348.5 L 715.5 329 Z " /><path fill="rgb(247,238,234)" stroke="rgb(247,238,234)" stroke-width="1" opacity="1" d="M 645.5 331 L 648 331.5 L 645.5 332 L 645.5 331 Z " /><path fill="rgb(247,238,234)" stroke="rgb(247,238,234)" stroke-width="1" opacity="1" d="M 1069.5 331 L 1070 365.5 L 1068.5 367 L 1057.5 367 L 1057.5 366 L 1069 366 L 1069.5 331 Z " /><path fill="rgb(247,238,234)" stroke="rgb(247,238,234)" stroke-width="1" opacity="1" d="M 738.5 334 L 739 344.5 L 738 344.5 L 738.5 334 Z " /><path fill="rgb(247,238,234)" stroke="rgb(247,238,234)" stroke-width="1" opacity="1" d="M 790.5 334 L 791 343.5 L 790 343.5 L 790.5 334 Z " /><path fill="rgb(247,238,234)" stroke="rgb(247,238,234)" stroke-width="1" opacity="1" d="M 815.5 335 L 816 354 L 857.5 354 L 859 355.5 L 859 365.5 L 857.5 367 L 803 366.5 L 858 366 L 858 355.5 L 857.5 355 L 816.5 355 L 815 353.5 L 815.5 335 Z " /><path fill="rgb(247,238,234)" stroke="rgb(247,238,234)" stroke-width="1" opacity="1" d="M 867.5 336 L 868 342.5 L 867 342.5 L 867.5 336 Z " /><path fill="rgb(247,238,234)" stroke="rgb(247,238,234)" stroke-width="1" opacity="1" d="M 992.5 336 L 993 342.5 L 992 342.5 L 992.5 336 Z " /><path fill="rgb(247,238,234)" stroke="rgb(247,238,234)" stroke-width="1" opacity="1" d="M 1046.5 336 L 1047 342.5 L 1046 342.5 L 1046.5 336 Z " /><path fill="rgb(247,238,234)" stroke="rgb(247,238,234)" stroke-width="1" opacity="1" d="M 1005.5 337 L 1006 340.5 L 1005 340.5 L 1005.5 337 Z " /><path fill="rgb(247,238,234)" stroke="rgb(247,238,234)" stroke-width="1" opacity="1" d="M 1033.5 338 L 1034 340.5 L 1033 340.5 L 1033.5 338 Z " /><path fill="rgb(247,238,234)" stroke="rgb(247,238,234)" stroke-width="1" opacity="1" d="M 622.5 339 L 618.5 344 L 622.5 339 Z " /><path fill="rgb(247,238,234)" stroke="rgb(247,238,234)" stroke-width="1" opacity="1" d="M 651.5 342 L 652 351.5 L 650 352.5 L 651 351.5 L 651.5 342 Z " /><path fill="rgb(247,238,234)" stroke="rgb(247,238,234)" stroke-width="1" opacity="1" d="M 676.5 344 L 677 346.5 L 676 346.5 L 676.5 344 Z " /><path fill="rgb(247,238,234)" stroke="rgb(247,238,234)" stroke-width="1" opacity="1" d="M 751.5 344 L 752 346.5 L 751 346.5 L 751.5 344 Z " /><path fill="rgb(247,238,234)" stroke="rgb(247,238,234)" stroke-width="1" opacity="1" d="M 691.5 349 L 692.5 351 L 691.5 349 Z " /><path fill="rgb(247,238,234)" stroke="rgb(247,238,234)" stroke-width="1" opacity="1" d="M 615.5 350 L 616 356.5 L 615 356.5 L 615.5 350 Z " /><path fill="rgb(247,238,234)" stroke="rgb(247,238,234)" stroke-width="1" opacity="1" d="M 778.5 350 L 780 350.5 L 777.5 352 L 778.5 350 Z " /><path fill="rgb(247,238,234)" stroke="rgb(247,238,234)" stroke-width="1" opacity="1" d="M 753.5 351 L 754.5 353 L 753.5 351 Z " /><path fill="rgb(247,238,234)" stroke="rgb(247,238,234)" stroke-width="1" opacity="1" d="M 784.5 351 L 787 351.5 L 784.5 352 L 784.5 351 Z " /><path fill="rgb(247,238,234)" stroke="rgb(247,238,234)" stroke-width="1" opacity="1" d="M 1009.5 352 L 1011.5 355 L 1009.5 352 Z " /><path fill="rgb(247,238,234)" stroke="rgb(247,238,234)" stroke-width="1" opacity="1" d="M 1029.5 352 L 1027.5 355 L 1029.5 352 Z " /><path fill="rgb(247,238,234)" stroke="rgb(247,238,234)" stroke-width="1" opacity="1" d="M 774.5 354 L 773.5 356 L 774.5 354 Z " /><path fill="rgb(247,238,234)" stroke="rgb(247,238,234)" stroke-width="1" opacity="1" d="M 974.5 354 L 975.5 356 L 974.5 354 Z " /><path fill="rgb(247,238,234)" stroke="rgb(247,238,234)" stroke-width="1" opacity="1" d="M 700.5 355 L 705 355.5 L 700.5 356 L 700.5 355 Z " /><path fill="rgb(247,238,234)" stroke="rgb(247,238,234)" stroke-width="1" opacity="1" d="M 986.5 355 L 987 365.5 L 986 365.5 L 986.5 355 Z " /><path fill="rgb(247,238,234)" stroke="rgb(247,238,234)" stroke-width="1" opacity="1" d="M 742.5 356 L 743.5 358 L 742.5 356 Z " /><path fill="rgb(247,238,234)" stroke="rgb(247,238,234)" stroke-width="1" opacity="1" d="M 891.5 356 L 894 356.5 L 891.5 357 L 891.5 356 Z " /><path fill="rgb(247,238,234)" stroke="rgb(247,238,234)" stroke-width="1" opacity="1" d="M 895.5 356 L 898 356.5 L 895.5 357 L 895.5 356 Z " /><path fill="rgb(247,238,234)" stroke="rgb(247,238,234)" stroke-width="1" opacity="1" d="M 977.5 356 L 980 356.5 L 977.5 357 L 977.5 356 Z " /><path fill="rgb(247,238,234)" stroke="rgb(247,238,234)" stroke-width="1" opacity="1" d="M 981.5 356 L 984 356.5 L 981.5 357 L 981.5 356 Z " /><path fill="rgb(247,238,234)" stroke="rgb(247,238,234)" stroke-width="1" opacity="1" d="M 1016.5 356 L 1019 356.5 L 1016.5 357 L 1016.5 356 Z " /><path fill="rgb(247,238,234)" stroke="rgb(247,238,234)" stroke-width="1" opacity="1" d="M 1020.5 356 L 1023 356.5 L 1020.5 357 L 1020.5 356 Z " /><path fill="rgb(247,238,234)" stroke="rgb(247,238,234)" stroke-width="1" opacity="1" d="M 998.5 358 L 1002.5 363 L 998.5 358 Z " /><path fill="rgb(247,238,234)" stroke="rgb(247,238,234)" stroke-width="1" opacity="1" d="M 1040.5 358 L 1036.5 363 L 1040.5 358 Z " /><path fill="rgb(247,238,234)" stroke="rgb(247,238,234)" stroke-width="1" opacity="1" d="M 715.5 360 L 716 363.5 L 715 363.5 L 715.5 360 Z " /><path fill="rgb(247,238,234)" stroke="rgb(247,238,234)" stroke-width="1" opacity="1" d="M 651.5 361 Q 653.8 360.3 653 362.5 L 650 362.5 L 651.5 361 Z " /><path fill="rgb(247,238,234)" stroke="rgb(247,238,234)" stroke-width="1" opacity="1" d="M 686.5 362 L 687.5 364 L 686.5 362 Z " /><path fill="rgb(247,238,234)" stroke="rgb(247,238,234)" stroke-width="1" opacity="1" d="M 712.5 362 L 711.5 364 L 712.5 362 Z " /><path fill="rgb(247,238,234)" stroke="rgb(247,238,234)" stroke-width="1" opacity="1" d="M 962.5 362 L 965.5 366 L 962.5 362 Z " /><path fill="rgb(247,238,234)" stroke="rgb(247,238,234)" stroke-width="1" opacity="1" d="M 877.5 363 L 878.5 365 L 877.5 363 Z " /><path fill="rgb(247,238,234)" stroke="rgb(247,238,234)" stroke-width="1" opacity="1" d="M 653.5 364 L 654.5 366 L 653.5 364 Z " /><path fill="rgb(247,238,234)" stroke="rgb(247,238,234)" stroke-width="1" opacity="1" d="M 524.5 366 L 536 366.5 L 524.5 367 L 524.5 366 Z " /><path fill="rgb(247,238,234)" stroke="rgb(247,238,234)" stroke-width="1" opacity="1" d="M 558.5 366 L 570 366.5 L 558.5 367 L 558.5 366 Z " /><path fill="rgb(247,238,234)" stroke="rgb(247,238,234)" stroke-width="1" opacity="1" d="M 702.5 366 L 705 366.5 L 702.5 367 L 702.5 366 Z " /><path fill="rgb(247,238,234)" stroke="rgb(247,238,234)" stroke-width="1" opacity="1" d="M 908.5 366 L 920 366.5 L 908.5 367 L 908.5 366 Z " /><path fill="rgb(247,238,234)" stroke="rgb(247,238,234)" stroke-width="1" opacity="1" d="M 629.5 367 L 632 367.5 L 629.5 368 L 629.5 367 Z " /><path fill="rgb(247,238,234)" stroke="rgb(247,238,234)" stroke-width="1" opacity="1" d="M 636.5 367 L 639 367.5 L 636.5 368 L 636.5 367 Z " /><path fill="rgb(247,238,234)" stroke="rgb(247,238,234)" stroke-width="1" opacity="1" d="M 971.5 367 L 980 367.5 L 971.5 368 L 971.5 367 Z " /><path fill="rgb(247,238,234)" stroke="rgb(247,238,234)" stroke-width="1" opacity="1" d="M 684.5 370 L 687 370.5 L 684.5 371 L 684.5 370 Z " /><path fill="rgb(247,238,234)" stroke="rgb(247,238,234)" stroke-width="1" opacity="1" d="M 428.5 372 L 426.5 375 L 428.5 372 Z " /><path fill="rgb(247,238,234)" stroke="rgb(247,238,234)" stroke-width="1" opacity="1" d="M 142.5 375 L 143.5 377 L 142.5 375 Z " /><path fill="rgb(247,238,234)" stroke="rgb(247,238,234)" stroke-width="1" opacity="1" d="M 724.5 377 L 719.5 383 L 724.5 377 Z " /><path fill="rgb(247,238,234)" stroke="rgb(247,238,234)" stroke-width="1" opacity="1" d="M 423.5 378 L 422.5 380 L 423.5 378 Z " /><path fill="rgb(247,238,234)" stroke="rgb(247,238,234)" stroke-width="1" opacity="1" d="M 680.5 378 L 684.5 383 L 680.5 378 Z " /><path fill="rgb(247,238,234)" stroke="rgb(247,238,234)" stroke-width="1" opacity="1" d="M 146.5 380 L 149.5 384 L 146.5 380 Z " /><path fill="rgb(247,238,234)" stroke="rgb(247,238,234)" stroke-width="1" opacity="1" d="M 418.5 384 L 405.5 398 L 418.5 384 Z " /><path fill="rgb(247,238,234)" stroke="rgb(247,238,234)" stroke-width="1" opacity="1" d="M 164.5 398 L 166.5 401 L 164.5 398 Z " /><path fill="rgb(247,238,234)" stroke="rgb(247,238,234)" stroke-width="1" opacity="1" d="M 399.5 402 L 398.5 404 L 399.5 402 Z " /><path fill="rgb(247,238,234)" stroke="rgb(247,238,234)" stroke-width="1" opacity="1" d="M 170.5 403 L 171.5 405 L 170.5 403 Z " /><path fill="rgb(247,238,234)" stroke="rgb(247,238,234)" stroke-width="1" opacity="1" d="M 395.5 405 L 394.5 407 L 395.5 405 Z " /><path fill="rgb(247,238,234)" stroke="rgb(247,238,234)" stroke-width="1" opacity="1" d="M 174.5 406 L 175.5 408 L 174.5 406 Z " /><path fill="rgb(247,238,234)" stroke="rgb(247,238,234)" stroke-width="1" opacity="1" d="M 391.5 408 L 390.5 410 L 391.5 408 Z " /><path fill="rgb(247,238,234)" stroke="rgb(247,238,234)" stroke-width="1" opacity="1" d="M 178.5 409 L 179.5 411 L 178.5 409 Z " /><path fill="rgb(247,238,234)" stroke="rgb(247,238,234)" stroke-width="1" opacity="1" d="M 254.5 441 L 258 441.5 L 254.5 442 L 254.5 441 Z " /><path fill="rgb(247,238,234)" stroke="rgb(247,238,234)" stroke-width="1" opacity="1" d="M 262.5 442 L 265 442.5 L 262.5 443 L 262.5 442 Z " /><path fill="rgb(247,238,234)" stroke="rgb(247,238,234)" stroke-width="1" opacity="1" d="M 305.5 442 L 308 442.5 L 305.5 443 L 305.5 442 Z " /><path fill="rgb(247,238,234)" stroke="rgb(247,238,234)" stroke-width="1" opacity="1" d="M 276.5 443 L 294 443.5 L 276.5 444 L 276.5 443 Z " /><path fill="rgb(254,254,254)" stroke="rgb(254,254,254)" stroke-width="1" opacity="1" d="M 279.5 81 L 291 81.5 L 279.5 82 L 279.5 81 Z " /><path fill="rgb(254,254,254)" stroke="rgb(254,254,254)" stroke-width="1" opacity="1" d="M 390.5 115 L 391.5 117 L 390.5 115 Z " /><path fill="rgb(254,254,254)" stroke="rgb(254,254,254)" stroke-width="1" opacity="1" d="M 394.5 118 L 395.5 120 L 394.5 118 Z " /><path fill="rgb(254,254,254)" stroke="rgb(254,254,254)" stroke-width="1" opacity="1" d="M 172.5 119 L 171.5 121 L 172.5 119 Z " /><path fill="rgb(254,254,254)" stroke="rgb(254,254,254)" stroke-width="1" opacity="1" d="M 399.5 122 L 400.5 124 L 399.5 122 Z " /><path fill="rgb(254,254,254)" stroke="rgb(254,254,254)" stroke-width="1" opacity="1" d="M 166.5 124 L 165.5 126 L 166.5 124 Z " /><path fill="rgb(254,254,254)" stroke="rgb(254,254,254)" stroke-width="1" opacity="1" d="M 405.5 127 L 417.5 140 L 405.5 127 Z " /><path fill="rgb(254,254,254)" stroke="rgb(254,254,254)" stroke-width="1" opacity="1" d="M 146.5 144 L 145.5 146 L 146.5 144 Z " /><path fill="rgb(254,254,254)" stroke="rgb(254,254,254)" stroke-width="1" opacity="1" d="M 422.5 145 L 424.5 148 L 422.5 145 Z " /><path fill="rgb(254,254,254)" stroke="rgb(254,254,254)" stroke-width="1" opacity="1" d="M 142.5 149 L 141.5 151 L 142.5 149 Z " /><path fill="rgb(254,254,254)" stroke="rgb(254,254,254)" stroke-width="1" opacity="1" d="M 427.5 151 L 428.5 153 L 427.5 151 Z " /><path fill="rgb(254,254,254)" stroke="rgb(254,254,254)" stroke-width="1" opacity="1" d="M 430.5 155 L 431.5 157 L 430.5 155 Z " /><path fill="rgb(254,254,254)" stroke="rgb(254,254,254)" stroke-width="1" opacity="1" d="M 704.5 165 L 706.5 168 L 704.5 165 Z " /><path fill="rgb(254,254,254)" stroke="rgb(254,254,254)" stroke-width="1" opacity="1" d="M 669.5 172 L 670 194.5 L 669 194.5 L 669.5 172 Z " /><path fill="rgb(254,254,254)" stroke="rgb(254,254,254)" stroke-width="1" opacity="1" d="M 695.5 190 L 694.5 192 L 695.5 190 Z " /><path fill="rgb(254,254,254)" stroke="rgb(254,254,254)" stroke-width="1" opacity="1" d="M 706.5 199 L 705.5 201 L 706.5 199 Z " /><path fill="rgb(254,254,254)" stroke="rgb(254,254,254)" stroke-width="1" opacity="1" d="M 669.5 207 L 670 232.5 L 669 232.5 L 669.5 207 Z " /><path fill="rgb(254,254,254)" stroke="rgb(254,254,254)" stroke-width="1" opacity="1" d="M 755.5 232 L 754.5 234 L 755.5 232 Z " /><path fill="rgb(254,254,254)" stroke="rgb(254,254,254)" stroke-width="1" opacity="1" d="M 843.5 232 L 842.5 234 L 843.5 232 Z " /><path fill="rgb(254,254,254)" stroke="rgb(254,254,254)" stroke-width="1" opacity="1" d="M 464.5 241 L 465 243.5 L 464 243.5 L 464.5 241 Z " /><path fill="rgb(254,254,254)" stroke="rgb(254,254,254)" stroke-width="1" opacity="1" d="M 103.5 248 L 104 251.5 L 103 251.5 L 103.5 248 Z " /><path fill="rgb(254,254,254)" stroke="rgb(254,254,254)" stroke-width="1" opacity="1" d="M 465.5 254 L 466 269.5 L 465 269.5 L 465.5 254 Z " /><path fill="rgb(254,254,254)" stroke="rgb(254,254,254)" stroke-width="1" opacity="1" d="M 492.5 269 L 1034 269.5 L 492.5 270 L 492.5 269 Z " /><path fill="rgb(254,254,254)" stroke="rgb(254,254,254)" stroke-width="1" opacity="1" d="M 103.5 274 L 104 276.5 L 103 276.5 L 103.5 274 Z " /><path fill="rgb(254,254,254)" stroke="rgb(254,254,254)" stroke-width="1" opacity="1" d="M 686.5 314 L 685.5 316 L 686.5 314 Z " /><path fill="rgb(254,254,254)" stroke="rgb(254,254,254)" stroke-width="1" opacity="1" d="M 748.5 315 L 747.5 317 L 748.5 315 Z " /><path fill="rgb(254,254,254)" stroke="rgb(254,254,254)" stroke-width="1" opacity="1" d="M 571.5 316 L 569.5 319 L 568 318.5 L 571.5 316 Z " /><path fill="rgb(254,254,254)" stroke="rgb(254,254,254)" stroke-width="1" opacity="1" d="M 623.5 316 L 620.5 320 L 623.5 316 Z " /><path fill="rgb(254,254,254)" stroke="rgb(254,254,254)" stroke-width="1" opacity="1" d="M 1073.5 316 L 1070.5 320 L 1073.5 316 Z " /><path fill="rgb(254,254,254)" stroke="rgb(254,254,254)" stroke-width="1" opacity="1" d="M 682.5 318 L 681.5 320 L 682.5 318 Z " /><path fill="rgb(254,254,254)" stroke="rgb(254,254,254)" stroke-width="1" opacity="1" d="M 756.5 324 L 754.5 327 L 756.5 324 Z " /><path fill="rgb(254,254,254)" stroke="rgb(254,254,254)" stroke-width="1" opacity="1" d="M 772.5 324 L 774.5 327 L 772.5 324 Z " /><path fill="rgb(254,254,254)" stroke="rgb(254,254,254)" stroke-width="1" opacity="1" d="M 712.5 326 L 714.5 329 L 712.5 326 Z " /><path fill="rgb(254,254,254)" stroke="rgb(254,254,254)" stroke-width="1" opacity="1" d="M 629.5 327 L 628.5 329 L 629.5 327 Z " /><path fill="rgb(254,254,254)" stroke="rgb(254,254,254)" stroke-width="1" opacity="1" d="M 1072.5 328 L 1070.5 331 L 1072.5 328 Z " /><path fill="rgb(254,254,254)" stroke="rgb(254,254,254)" stroke-width="1" opacity="1" d="M 713.5 350 L 712.5 352 L 713.5 350 Z " /><path fill="rgb(254,254,254)" stroke="rgb(254,254,254)" stroke-width="1" opacity="1" d="M 693.5 351 L 694.5 353 L 693.5 351 Z " /><path fill="rgb(254,254,254)" stroke="rgb(254,254,254)" stroke-width="1" opacity="1" d="M 776.5 352 L 775.5 354 L 776.5 352 Z " /><path fill="rgb(254,254,254)" stroke="rgb(254,254,254)" stroke-width="1" opacity="1" d="M 629.5 354 L 630.5 356 L 629.5 354 Z " /><path fill="rgb(254,254,254)" stroke="rgb(254,254,254)" stroke-width="1" opacity="1" d="M 438.5 358 L 437.5 360 L 438.5 358 Z " /><path fill="rgb(254,254,254)" stroke="rgb(254,254,254)" stroke-width="1" opacity="1" d="M 681.5 358 L 684.5 362 L 681.5 358 Z " /><path fill="rgb(254,254,254)" stroke="rgb(254,254,254)" stroke-width="1" opacity="1" d="M 744.5 359 L 747.5 363 L 744.5 359 Z " /><path fill="rgb(254,254,254)" stroke="rgb(254,254,254)" stroke-width="1" opacity="1" d="M 786.5 359 L 783.5 363 L 786.5 359 Z " /><path fill="rgb(254,254,254)" stroke="rgb(254,254,254)" stroke-width="1" opacity="1" d="M 874.5 361 L 875.5 363 L 874.5 361 Z " /><path fill="rgb(254,254,254)" stroke="rgb(254,254,254)" stroke-width="1" opacity="1" d="M 432.5 367 L 431.5 369 L 432.5 367 Z " /><path fill="rgb(254,254,254)" stroke="rgb(254,254,254)" stroke-width="1" opacity="1" d="M 426.5 375 L 424.5 378 L 426.5 375 Z " /><path fill="rgb(254,254,254)" stroke="rgb(254,254,254)" stroke-width="1" opacity="1" d="M 144.5 378 L 145.5 380 L 144.5 378 Z " /><path fill="rgb(254,254,254)" stroke="rgb(254,254,254)" stroke-width="1" opacity="1" d="M 421.5 381 L 419.5 384 L 421.5 381 Z " /><path fill="rgb(254,254,254)" stroke="rgb(254,254,254)" stroke-width="1" opacity="1" d="M 152.5 387 L 159.5 395 L 152.5 387 Z " /><path fill="rgb(254,254,254)" stroke="rgb(254,254,254)" stroke-width="1" opacity="1" d="M 404.5 398 L 401.5 402 L 404.5 398 Z " /><path fill="rgb(254,254,254)" stroke="rgb(254,254,254)" stroke-width="1" opacity="1" d="M 397.5 404 L 396.5 406 L 397.5 404 Z " /><path fill="rgb(254,254,254)" stroke="rgb(254,254,254)" stroke-width="1" opacity="1" d="M 393.5 407 L 392.5 409 L 393.5 407 Z " /><path fill="rgb(254,254,254)" stroke="rgb(254,254,254)" stroke-width="1" opacity="1" d="M 269.5 443 L 276 443.5 L 269.5 444 L 269.5 443 Z " /><path fill="rgb(254,254,254)" stroke="rgb(254,254,254)" stroke-width="1" opacity="1" d="M 294.5 443 L 299 443.5 L 294.5 444 L 294.5 443 Z " /><path fill="rgb(255,255,255)" stroke="rgb(255,255,255)" stroke-width="1" opacity="1" d="M 0 0 L 1200 0 L 1200 500 L 0 500 L 0 0 Z M 280 81 L 279 82 L 265 82 L 264 83 L 250 84 L 216 94 Q 188 106 167 124 Q 140 146 123 179 L 114 199 L 108 218 L 104 239 L 104 248 L 103 249 L 103 277 L 104 278 L 104 287 L 108 308 L 114 327 Q 128 362 152 388 Q 176 413 211 429 L 236 438 L 270 444 L 299 444 L 300 443 L 309 443 L 337 437 Q 375 425 402 402 Q 434 375 452 334 L 461 307 L 464 292 L 465 271 L 466 270 L 466 255 L 465 254 L 464 235 L 459 212 L 455 200 Q 441 165 418 140 Q 393 112 358 96 L 339 89 L 313 83 L 280 81 Z M 656 160 L 656 234 L 657 234 L 669 234 L 670 233 L 670 207 L 693 207 L 706 201 Q 710 196 712 189 L 712 179 L 707 168 Q 702 162 693 160 L 656 160 Z M 721 160 L 721 172 L 734 172 L 734 160 L 721 160 Z M 859 160 L 856 164 L 829 232 L 830 234 L 843 234 L 849 218 L 851 216 L 881 216 L 887 232 L 888 234 L 902 234 L 874 162 L 873 160 L 859 160 Z M 909 160 L 909 234 L 910 234 L 923 234 L 923 161 L 923 160 L 909 160 Z M 721 179 L 721 234 L 722 234 L 734 234 L 734 180 L 734 179 L 721 179 Z M 740 179 L 759 206 L 759 208 L 740 233 L 741 234 L 755 234 L 768 217 L 778 232 L 781 234 L 795 234 L 775 207 L 794 181 L 794 179 L 779 179 L 770 193 L 766 195 L 757 182 L 755 179 L 740 179 Z M 492 256 L 492 270 L 1034 270 L 1035 269 L 1087 269 L 1087 257 L 1087 256 L 492 256 Z M 496 293 L 496 367 L 497 367 L 510 367 L 510 294 L 510 293 L 496 293 Z M 802 293 L 802 367 L 859 367 L 859 355 L 859 354 L 816 354 L 816 335 L 854 335 L 854 324 L 854 323 L 816 323 L 816 305 L 858 305 L 858 294 L 858 293 L 802 293 Z M 907 293 L 907 316 L 899 311 Q 883 309 877 315 L 869 326 L 867 336 L 868 350 L 874 362 L 886 368 Q 900 370 906 364 L 907 364 L 908 367 L 920 367 L 920 294 L 920 293 L 907 293 Z M 931 293 L 931 305 L 945 305 L 945 293 L 931 293 Z M 961 298 L 961 313 L 951 313 L 951 324 L 961 324 L 961 361 L 962 363 Q 965 367 972 368 L 986 367 L 987 366 L 987 355 L 985 356 Q 976 358 974 354 L 974 324 L 987 324 L 987 313 L 974 313 L 974 298 L 961 298 Z M 547 311 Q 540 312 537 317 L 536 312 L 524 312 L 523 313 L 523 367 L 536 367 L 536 367 L 536 329 Q 539 324 546 322 L 552 322 L 555 324 L 557 328 Q 556 332 558 334 L 558 367 L 571 367 L 571 367 L 571 329 L 580 322 L 588 323 L 592 329 L 592 367 L 606 367 L 606 327 L 605 322 L 602 317 L 594 311 L 581 311 L 570 318 L 560 311 L 547 311 Z M 634 311 L 624 316 Q 618 320 617 327 L 629 329 L 630 327 L 637 322 Q 644 321 648 323 Q 652 325 651 331 Q 635 331 624 338 Q 617 342 615 351 L 615 357 L 618 363 L 629 368 Q 644 369 652 362 L 653 365 L 657 367 L 662 368 L 670 367 L 670 358 L 667 358 L 665 357 L 665 326 L 662 319 Q 658 313 651 311 L 634 311 Z M 694 311 L 687 314 Q 678 320 676 332 Q 674 350 681 359 Q 686 364 695 367 L 705 367 L 715 362 L 715 367 L 712 373 L 706 376 Q 696 377 692 373 L 690 370 L 677 371 L 679 378 Q 684 385 694 387 Q 711 389 720 383 L 727 375 L 729 367 L 729 313 L 729 312 L 715 312 L 715 316 Q 709 309 694 311 Z M 758 311 L 749 315 Q 740 321 738 334 L 738 346 L 744 360 Q 749 366 759 368 Q 776 370 784 363 L 791 353 L 781 350 L 779 350 L 770 357 Q 761 358 758 355 L 752 349 Q 751 344 753 344 L 791 344 L 791 334 L 787 322 Q 780 308 758 311 Z M 1012 311 L 1005 314 L 995 325 L 992 336 Q 991 350 997 358 Q 1002 365 1013 368 Q 1028 370 1036 364 L 1042 358 L 1047 344 L 1046 331 L 1044 325 L 1039 317 L 1028 311 L 1012 311 Z M 1084 311 Q 1075 313 1071 319 L 1070 312 L 1057 312 L 1056 313 L 1056 367 L 1070 367 L 1070 332 Q 1076 323 1089 322 L 1089 311 L 1084 311 Z M 931 312 L 931 367 L 932 367 L 945 367 L 945 313 L 945 312 L 931 312 Z " /><path fill="rgb(255,255,255)" stroke="rgb(255,255,255)" stroke-width="1" opacity="1" d="M 670 172 L 687.5 172 L 696 176.5 Q 699 179.5 698 186.5 L 692.5 193 Q 683.6 196.8 670 195 L 670 172 Z " /><path fill="rgb(255,255,255)" stroke="rgb(255,255,255)" stroke-width="1" opacity="1" d="M 865.5 177 L 876 203.5 L 855 204 L 865.5 177 Z " /><path fill="rgb(255,255,255)" stroke="rgb(255,255,255)" stroke-width="1" opacity="1" d="M 701.5 322 Q 711.4 322.6 715 329.5 L 715 349.5 L 713.5 350 Q 710.2 356.7 698.5 355 L 692 349.5 L 690 345.5 L 689 337.5 L 691 329.5 L 694.5 325 L 701.5 322 Z " /><path fill="rgb(255,255,255)" stroke="rgb(255,255,255)" stroke-width="1" opacity="1" d="M 760.5 322 L 768.5 322 L 776 328.5 L 777 334 L 752.5 334 L 752 330.5 L 758.5 323 L 760.5 322 Z " /><path fill="rgb(255,255,255)" stroke="rgb(255,255,255)" stroke-width="1" opacity="1" d="M 893.5 322 Q 903.1 322.4 907 328.5 L 907 351.5 L 905.5 352 Q 901.5 358 889.5 356 L 884 351.5 Q 879.5 346 881 334.5 Q 882.5 327.6 887.5 324 L 893.5 322 Z " /><path fill="rgb(255,255,255)" stroke="rgb(255,255,255)" stroke-width="1" opacity="1" d="M 1018.5 322 Q 1026.9 322.1 1030 327.5 Q 1034.5 333 1033 344.5 Q 1031.5 351.4 1026.5 355 Q 1022.7 357.7 1014.5 356 L 1009 351.5 Q 1004.5 346 1006 334.5 Q 1007.6 327.6 1012.5 324 L 1018.5 322 Z " /><path fill="rgb(255,255,255)" stroke="rgb(255,255,255)" stroke-width="1" opacity="1" d="M 647.5 342 L 651 342 L 651 351.5 Q 645.5 357.5 633.5 357 L 629 353.5 Q 628.4 348.4 631.5 347 L 647.5 342 Z " /><path fill="rgb(254,146,78)" stroke="rgb(254,146,78)" stroke-width="1" opacity="1" d="M 657 161 L 692.5 161 Q 703.3 162.7 708 170.5 Q 712.4 176.6 711 188.5 Q 709.3 197.8 702.5 202 L 692.5 206 L 669 206 L 669 233 L 657 233 L 657 161 Z M 669 171 L 669 196 Q 685 198 695 193 L 699 186 Q 700 179 697 177 L 695 174 L 687 171 L 669 171 Z " /><path fill="rgb(254,146,78)" stroke="rgb(254,146,78)" stroke-width="1" opacity="1" d="M 721 161 L 733 161 L 733 172 L 721 172 L 721 161 Z " /><path fill="rgb(254,146,78)" stroke="rgb(254,146,78)" stroke-width="1" opacity="1" d="M 858 161 L 872.5 161 L 873 162.5 L 901 232.5 L 888 233 L 882 216 L 849.5 216 L 848 217.5 L 843 233 L 830.5 233 L 830 231.5 L 858 161 Z M 866 175 L 854 203 L 855 205 L 877 205 L 866 175 Z " /><path fill="rgb(254,146,78)" stroke="rgb(254,146,78)" stroke-width="1" opacity="1" d="M 910 161 L 921.5 161 L 922 161.5 L 922 233 L 910.5 233 L 910 232.5 L 910 161 Z " /><path fill="rgb(254,146,78)" stroke="rgb(254,146,78)" stroke-width="1" opacity="1" d="M 721 180 L 732.5 180 L 733 180.5 L 733 233 L 721.5 233 L 721 232.5 L 721 180 Z " /><path fill="rgb(254,146,78)" stroke="rgb(254,146,78)" stroke-width="1" opacity="1" d="M 742 180 L 754.5 180 L 756 181.5 L 767.5 197 L 780.5 180 L 793 180.5 L 774 206.5 L 794 232.5 L 780 233 L 767.5 216 L 765 217.5 L 753.5 233 L 741 232.5 L 760 207.5 L 760 205.5 L 742 180 Z " /><path fill="rgb(254,146,78)" stroke="rgb(254,146,78)" stroke-width="1" opacity="1" d="M 201.5 231 L 200.5 233 L 201.5 231 Z " /><path fill="rgb(254,146,78)" stroke="rgb(254,146,78)" stroke-width="1" opacity="1" d="M 497 294 L 509.5 294 L 510 294.5 L 510 366 L 497.5 366 L 497 365.5 L 497 294 Z " /><path fill="rgb(254,146,78)" stroke="rgb(254,146,78)" stroke-width="1" opacity="1" d="M 803 294 L 856.5 294 L 857 294.5 L 857 304 L 815 304 L 815 322.5 L 816.5 324 L 853 324 L 853 333.5 L 852.5 334 L 815 334 L 815 355 L 857.5 355 L 858 355.5 L 858 366 L 803 366 L 803 294 Z " /><path fill="rgb(254,146,78)" stroke="rgb(254,146,78)" stroke-width="1" opacity="1" d="M 908 294 L 919.5 294 L 920 294.5 L 920 366 L 908.5 366 L 908 362 L 906.5 362 Q 900.6 369.1 885.5 367 Q 877.1 364.9 873 358.5 Q 866.9 350.1 868 334.5 L 870 325.5 L 875 317 L 881.5 313 L 893.5 311 L 898.5 312 L 908 317 L 908 294 Z M 890 322 L 888 323 Q 881 327 880 336 L 880 344 L 883 352 L 890 357 Q 900 358 906 354 L 908 352 L 908 329 Q 904 320 890 322 Z " /><path fill="rgb(254,146,78)" stroke="rgb(254,146,78)" stroke-width="1" opacity="1" d="M 932 294 L 944 294 L 944 305 L 932 305 L 932 294 Z " /><path fill="rgb(254,146,78)" stroke="rgb(254,146,78)" stroke-width="1" opacity="1" d="M 961 299 L 973 299 L 973 313 L 986 313 L 986 323 L 973 323 L 973 353.5 L 974 356 Q 977 358 984.5 357 L 986 356.5 L 986 366 L 982.5 366 L 981.5 367 L 970.5 367 L 963 362.5 L 961 355.5 L 961 323 L 952 323 L 952 313 L 961 313 L 961 299 Z " /><path fill="rgb(254,146,78)" stroke="rgb(254,146,78)" stroke-width="1" opacity="1" d="M 550.5 311 L 559.5 312 L 567 317.5 L 568.5 320 L 580.5 312 L 588.5 311 L 597.5 314 L 603 319.5 L 605 325.5 L 605 366 L 593.5 366 L 593 365.5 L 593 329.5 L 587.5 322 L 579.5 321 L 571 326.5 L 570 328.5 L 570 366 L 558.5 366 L 558 365.5 L 558 327.5 L 553.5 322 L 545.5 321 L 536 326 L 536 365.5 L 535.5 366 L 524 366 L 524 313.5 L 524.5 313 L 536 313 L 536.5 318 Q 541.5 312.5 550.5 311 Z " /><path fill="rgb(254,146,78)" stroke="rgb(254,146,78)" stroke-width="1" opacity="1" d="M 639.5 311 L 653.5 313 L 661 318.5 L 664 325.5 L 664 356.5 L 665.5 358 L 669 359 L 669 366 L 665.5 366 Q 664.3 368.2 659.5 367 L 654 365 L 652.5 360 Q 647.7 365.2 639.5 367 L 628.5 367 Q 620.2 365.8 617 359.5 L 616 349.5 L 622.5 340 L 635.5 334 L 650.5 332 L 652 330.5 L 652 326.5 L 647.5 322 L 637.5 321 Q 631.8 322.3 629 326.5 Q 629.8 328.8 627.5 328 L 618 326 L 619 322.5 L 626.5 315 L 639.5 311 Z M 649 341 L 639 343 L 632 346 Q 627 348 628 355 L 631 357 L 635 358 Q 647 358 652 352 L 652 342 L 649 341 Z " /><path fill="rgb(254,146,78)" stroke="rgb(254,146,78)" stroke-width="1" opacity="1" d="M 697.5 311 Q 710.2 310.8 715.5 318 L 716 313 L 727.5 313 L 728 313.5 L 728 367.5 Q 726.2 377.2 719.5 382 L 710.5 386 L 702.5 386 L 701.5 387 L 690.5 385 L 681 378.5 L 678 372 L 688.5 371 Q 692.5 378 704.5 377 Q 711.1 376.1 714 371.5 Q 717 367.3 716 360 L 704.5 366 L 694.5 366 Q 685.4 363.5 681 356.5 Q 674.5 348.5 677 331.5 Q 679.3 321.8 685.5 316 L 697.5 311 Z M 698 322 L 696 323 L 689 333 Q 687 346 692 352 L 699 356 L 707 356 L 714 352 L 716 350 L 716 329 L 708 322 L 698 322 Z " /><path fill="rgb(254,146,78)" stroke="rgb(254,146,78)" stroke-width="1" opacity="1" d="M 762.5 311 L 775.5 313 L 785 320.5 Q 791.8 328.6 790 344 L 751.5 344 L 751 347.5 L 755.5 355 Q 759.6 358.9 768.5 358 L 778 352.5 Q 777.1 349.5 781.5 351 Q 782.8 353.2 787.5 352 L 789 353.5 L 780.5 364 Q 772.9 368.9 758.5 367 Q 747.8 364.7 743 356.5 L 739 345.5 L 739 333.5 Q 740.9 323.8 746 318 L 756.5 312 Q 761.3 313.2 762.5 311 Z M 762 321 L 757 323 L 751 331 Q 750 335 752 335 L 778 335 L 776 327 Q 772 320 762 321 Z " /><path fill="rgb(254,146,78)" stroke="rgb(254,146,78)" stroke-width="1" opacity="1" d="M 1017.5 311 Q 1034.6 310.9 1041 321.5 L 1045 329.5 L 1046 344.5 Q 1043.8 355.8 1036.5 362 Q 1029.3 369.3 1012.5 367 Q 1004 364.5 999 358.5 Q 992 350.5 993 334.5 Q 995 322 1003.5 316 L 1008.5 313 L 1017.5 311 Z M 1015 322 L 1013 323 Q 1006 326 1005 335 Q 1004 346 1008 352 L 1016 357 Q 1023 359 1027 356 Q 1032 352 1034 345 Q 1035 334 1032 329 L 1025 322 L 1015 322 Z " /><path fill="rgb(254,146,78)" stroke="rgb(254,146,78)" stroke-width="1" opacity="1" d="M 1083.5 312 L 1089 312 L 1089 321 Q 1075.4 321.3 1069 330.5 L 1069 365.5 L 1068.5 366 L 1057 366 L 1057 313.5 L 1057.5 313 L 1069 313 L 1069.5 322 Q 1074.1 314.6 1083.5 312 Z " /><path fill="rgb(254,146,78)" stroke="rgb(254,146,78)" stroke-width="1" opacity="1" d="M 932 313 L 943.5 313 L 944 313.5 L 944 366 L 932.5 366 L 932 365.5 L 932 313 Z " /><path fill="rgb(254,189,93)" stroke="rgb(254,189,93)" stroke-width="1" opacity="1" d="M 392.5 157 L 399 159 L 395 180.5 L 388 202.5 L 379 219.5 L 370.5 228 L 358.5 233 L 333 233 L 332 247.5 L 331 248.5 L 331 258.5 L 330 259.5 L 330 271.5 L 329 272.5 L 329 298.5 L 330 299.5 L 331 310.5 L 337 327.5 L 347.5 340 L 357.5 344 L 370.5 344 Q 381.8 341.3 388 333.5 L 394 322.5 L 395 317 L 402 318 L 399 333.5 L 393 350.5 Q 385.8 369.3 371.5 381 Q 365.1 386.1 355.5 388 L 340.5 388 L 329.5 384 L 320 375.5 L 314 364.5 L 311 353.5 Q 312.8 347.3 310 345.5 L 310 323.5 L 311 322.5 L 311 312.5 L 312 311.5 L 313 297.5 L 317 279.5 L 324 232 L 308.5 232 L 307.5 231 L 293.5 231 L 292.5 230 L 277.5 230 L 276.5 229 L 262.5 229 L 261.5 228 L 253 228 L 253 311.5 L 252 312.5 L 252 330.5 L 251 331.5 L 250 349.5 L 247 362.5 L 242 373.5 L 232.5 384 Q 225.2 389.7 210.5 388 Q 199.4 385.6 194 377.5 L 190 368.5 L 190 358.5 L 195 344.5 L 225 304.5 L 231 293.5 L 240 265.5 L 240 260.5 L 243 247.5 L 243 239.5 L 244 238.5 L 244 227 L 231.5 227 L 230.5 226 L 211.5 226 Q 204 227.5 200 232.5 L 194 244 L 186 240.5 L 191 216.5 L 198 196.5 Q 203.8 183.3 213.5 174 Q 221.8 165.8 240.5 168 L 241.5 169 L 263.5 169 L 264.5 170 L 282.5 170 L 283.5 171 L 302.5 171 L 303.5 172 L 322.5 172 L 323.5 173 L 375.5 175 Q 383.6 173.6 387 167.5 L 392.5 157 Z " /><path fill="rgb(254,189,93)" stroke="rgb(254,189,93)" stroke-width="1" opacity="1" d="M 656 160 L 690 160.5 L 657 161 L 656.5 233 L 656 160 Z " /><path fill="rgb(254,189,93)" stroke="rgb(254,189,93)" stroke-width="1" opacity="1" d="M 721.5 160 L 734 160 L 734 171.5 L 733 171.5 L 733 161 L 721.5 161 L 721.5 160 Z " /><path fill="rgb(254,189,93)" stroke="rgb(254,189,93)" stroke-width="1" opacity="1" d="M 858.5 160 L 873 160.5 L 858.5 161 L 858.5 160 Z " /><path fill="rgb(254,189,93)" stroke="rgb(254,189,93)" stroke-width="1" opacity="1" d="M 909 160 L 922 160.5 L 910 161 L 909.5 233 L 909 160 Z " /><path fill="rgb(254,189,93)" stroke="rgb(254,189,93)" stroke-width="1" opacity="1" d="M 703.5 165 L 707.5 170 L 703.5 165 Z " /><path fill="rgb(254,189,93)" stroke="rgb(254,189,93)" stroke-width="1" opacity="1" d="M 669.5 171 L 687 171.5 L 669.5 172 L 669.5 171 Z " /><path fill="rgb(254,189,93)" stroke="rgb(254,189,93)" stroke-width="1" opacity="1" d="M 694.5 174 L 696.5 177 L 694.5 174 Z " /><path fill="rgb(254,189,93)" stroke="rgb(254,189,93)" stroke-width="1" opacity="1" d="M 865.5 175 L 867 177.5 L 866 177.5 L 865.5 175 Z " /><path fill="rgb(254,189,93)" stroke="rgb(254,189,93)" stroke-width="1" opacity="1" d="M 722.5 179 L 732.5 179 L 734 180.5 L 733.5 233 L 733 180 L 722.5 180 L 722.5 179 Z " /><path fill="rgb(254,189,93)" stroke="rgb(254,189,93)" stroke-width="1" opacity="1" d="M 741 179 L 754 179.5 L 742.5 180 L 741.5 181 L 741 179 Z " /><path fill="rgb(254,189,93)" stroke="rgb(254,189,93)" stroke-width="1" opacity="1" d="M 780.5 179 L 793 179.5 L 780.5 180 L 779.5 181 L 780.5 179 Z " /><path fill="rgb(254,189,93)" stroke="rgb(254,189,93)" stroke-width="1" opacity="1" d="M 698.5 180 L 699 185.5 L 698 185.5 L 698.5 180 Z " /><path fill="rgb(254,189,93)" stroke="rgb(254,189,93)" stroke-width="1" opacity="1" d="M 792.5 181 L 791.5 183 L 792.5 181 Z " /><path fill="rgb(254,189,93)" stroke="rgb(254,189,93)" stroke-width="1" opacity="1" d="M 743.5 183 L 744.5 185 L 743.5 183 Z " /><path fill="rgb(254,189,93)" stroke="rgb(254,189,93)" stroke-width="1" opacity="1" d="M 758.5 185 L 759.5 187 L 758.5 185 Z " /><path fill="rgb(254,189,93)" stroke="rgb(254,189,93)" stroke-width="1" opacity="1" d="M 774.5 187 L 773.5 189 L 774.5 187 Z " /><path fill="rgb(254,189,93)" stroke="rgb(254,189,93)" stroke-width="1" opacity="1" d="M 761.5 189 L 762.5 191 L 761.5 189 Z " /><path fill="rgb(254,189,93)" stroke="rgb(254,189,93)" stroke-width="1" opacity="1" d="M 696.5 190 L 694.5 193 L 696.5 190 Z " /><path fill="rgb(254,189,93)" stroke="rgb(254,189,93)" stroke-width="1" opacity="1" d="M 748.5 190 L 749.5 192 L 748.5 190 Z " /><path fill="rgb(254,189,93)" stroke="rgb(254,189,93)" stroke-width="1" opacity="1" d="M 771.5 191 L 770.5 193 L 771.5 191 Z " /><path fill="rgb(254,189,93)" stroke="rgb(254,189,93)" stroke-width="1" opacity="1" d="M 784.5 192 L 783.5 194 L 784.5 192 Z " /><path fill="rgb(254,189,93)" stroke="rgb(254,189,93)" stroke-width="1" opacity="1" d="M 764.5 193 L 765.5 195 L 764.5 193 Z " /><path fill="rgb(254,189,93)" stroke="rgb(254,189,93)" stroke-width="1" opacity="1" d="M 751.5 194 L 752.5 196 L 751.5 194 Z " /><path fill="rgb(254,189,93)" stroke="rgb(254,189,93)" stroke-width="1" opacity="1" d="M 669.5 195 L 685 195.5 L 669.5 196 L 669.5 195 Z " /><path fill="rgb(254,189,93)" stroke="rgb(254,189,93)" stroke-width="1" opacity="1" d="M 768.5 195 L 767.5 197 L 768.5 195 Z " /><path fill="rgb(254,189,93)" stroke="rgb(254,189,93)" stroke-width="1" opacity="1" d="M 781.5 196 L 780.5 198 L 781.5 196 Z " /><path fill="rgb(254,189,93)" stroke="rgb(254,189,93)" stroke-width="1" opacity="1" d="M 706.5 198 L 704.5 201 L 706.5 198 Z " /><path fill="rgb(254,189,93)" stroke="rgb(254,189,93)" stroke-width="1" opacity="1" d="M 754.5 198 L 755.5 200 L 754.5 198 Z " /><path fill="rgb(254,189,93)" stroke="rgb(254,189,93)" stroke-width="1" opacity="1" d="M 778.5 200 L 777.5 202 L 778.5 200 Z " /><path fill="rgb(254,189,93)" stroke="rgb(254,189,93)" stroke-width="1" opacity="1" d="M 757.5 202 L 758.5 204 L 757.5 202 Z " /><path fill="rgb(254,189,93)" stroke="rgb(254,189,93)" stroke-width="1" opacity="1" d="M 876.5 203 L 877 205 L 854 204.5 L 875.5 204 L 876.5 203 Z " /><path fill="rgb(254,189,93)" stroke="rgb(254,189,93)" stroke-width="1" opacity="1" d="M 775.5 204 L 775 205.5 L 774.5 207 L 774 205.5 L 775.5 204 Z " /><path fill="rgb(254,189,93)" stroke="rgb(254,189,93)" stroke-width="1" opacity="1" d="M 669.5 206 L 689 206.5 L 669.5 207 L 669.5 206 Z " /><path fill="rgb(254,189,93)" stroke="rgb(254,189,93)" stroke-width="1" opacity="1" d="M 759.5 207 L 758.5 209 L 759.5 207 Z " /><path fill="rgb(254,189,93)" stroke="rgb(254,189,93)" stroke-width="1" opacity="1" d="M 776.5 209 L 777.5 211 L 776.5 209 Z " /><path fill="rgb(254,189,93)" stroke="rgb(254,189,93)" stroke-width="1" opacity="1" d="M 779.5 213 L 780.5 215 L 779.5 213 Z " /><path fill="rgb(254,189,93)" stroke="rgb(254,189,93)" stroke-width="1" opacity="1" d="M 766.5 216 L 765.5 218 L 766.5 216 Z " /><path fill="rgb(254,189,93)" stroke="rgb(254,189,93)" stroke-width="1" opacity="1" d="M 782.5 217 L 783.5 219 L 782.5 217 Z " /><path fill="rgb(254,189,93)" stroke="rgb(254,189,93)" stroke-width="1" opacity="1" d="M 751.5 218 L 750.5 220 L 751.5 218 Z " /><path fill="rgb(254,189,93)" stroke="rgb(254,189,93)" stroke-width="1" opacity="1" d="M 763.5 220 L 762.5 222 L 763.5 220 Z " /><path fill="rgb(254,189,93)" stroke="rgb(254,189,93)" stroke-width="1" opacity="1" d="M 748.5 222 L 747.5 224 L 748.5 222 Z " /><path fill="rgb(254,189,93)" stroke="rgb(254,189,93)" stroke-width="1" opacity="1" d="M 745.5 226 L 744.5 228 L 745.5 226 Z " /><path fill="rgb(254,189,93)" stroke="rgb(254,189,93)" stroke-width="1" opacity="1" d="M 758.5 227 L 757.5 229 L 758.5 227 Z " /><path fill="rgb(254,189,93)" stroke="rgb(254,189,93)" stroke-width="1" opacity="1" d="M 742.5 230 L 741.5 232 L 742.5 230 Z " /><path fill="rgb(254,189,93)" stroke="rgb(254,189,93)" stroke-width="1" opacity="1" d="M 778.5 230 L 779.5 232 L 778.5 230 Z " /><path fill="rgb(254,189,93)" stroke="rgb(254,189,93)" stroke-width="1" opacity="1" d="M 755.5 231 L 754.5 233 L 755.5 231 Z " /><path fill="rgb(254,189,93)" stroke="rgb(254,189,93)" stroke-width="1" opacity="1" d="M 497.5 293 L 510 293.5 L 497.5 294 L 497.5 293 Z " /><path fill="rgb(254,189,93)" stroke="rgb(254,189,93)" stroke-width="1" opacity="1" d="M 802 293 L 857.5 293 L 858 293.5 L 858 305 L 815 304.5 L 857 304 L 857 294.5 L 856.5 294 L 803 294 L 802.5 366 L 802 293 Z " /><path fill="rgb(254,189,93)" stroke="rgb(254,189,93)" stroke-width="1" opacity="1" d="M 907 293 L 920 293.5 L 908 294 L 908 316.5 L 906.5 317 L 907 315.5 L 907 293 Z " /><path fill="rgb(254,189,93)" stroke="rgb(254,189,93)" stroke-width="1" opacity="1" d="M 932.5 293 L 943.5 293 L 945 294.5 L 944.5 305 L 944 294 L 932.5 294 L 932.5 293 Z " /><path fill="rgb(254,189,93)" stroke="rgb(254,189,93)" stroke-width="1" opacity="1" d="M 973.5 299 L 974 312.5 L 973 312.5 L 973.5 299 Z " /><path fill="rgb(254,189,93)" stroke="rgb(254,189,93)" stroke-width="1" opacity="1" d="M 555.5 311 L 558 311.5 L 555.5 312 L 555.5 311 Z " /><path fill="rgb(254,189,93)" stroke="rgb(254,189,93)" stroke-width="1" opacity="1" d="M 582.5 311 L 585 311.5 L 582.5 312 L 582.5 311 Z " /><path fill="rgb(254,189,93)" stroke="rgb(254,189,93)" stroke-width="1" opacity="1" d="M 589.5 311 L 592 311.5 L 589.5 312 L 589.5 311 Z " /><path fill="rgb(254,189,93)" stroke="rgb(254,189,93)" stroke-width="1" opacity="1" d="M 635.5 311 L 639 311.5 L 635.5 312 L 635.5 311 Z " /><path fill="rgb(254,189,93)" stroke="rgb(254,189,93)" stroke-width="1" opacity="1" d="M 645.5 311 L 648 311.5 L 645.5 312 L 645.5 311 Z " /><path fill="rgb(254,189,93)" stroke="rgb(254,189,93)" stroke-width="1" opacity="1" d="M 702.5 311 L 705 311.5 L 702.5 312 L 702.5 311 Z " /><path fill="rgb(254,189,93)" stroke="rgb(254,189,93)" stroke-width="1" opacity="1" d="M 759.5 311 L 762 311.5 L 759.5 312 L 759.5 311 Z " /><path fill="rgb(254,189,93)" stroke="rgb(254,189,93)" stroke-width="1" opacity="1" d="M 767.5 311 L 771 311.5 L 767.5 312 L 767.5 311 Z " /><path fill="rgb(254,189,93)" stroke="rgb(254,189,93)" stroke-width="1" opacity="1" d="M 886.5 311 L 889 311.5 L 886.5 312 L 886.5 311 Z " /><path fill="rgb(254,189,93)" stroke="rgb(254,189,93)" stroke-width="1" opacity="1" d="M 894.5 311 L 897 311.5 L 894.5 312 L 894.5 311 Z " /><path fill="rgb(254,189,93)" stroke="rgb(254,189,93)" stroke-width="1" opacity="1" d="M 1014.5 311 L 1017 311.5 L 1014.5 312 L 1014.5 311 Z " /><path fill="rgb(254,189,93)" stroke="rgb(254,189,93)" stroke-width="1" opacity="1" d="M 1022.5 311 L 1025 311.5 L 1022.5 312 L 1022.5 311 Z " /><path fill="rgb(254,189,93)" stroke="rgb(254,189,93)" stroke-width="1" opacity="1" d="M 1085.5 311 L 1089 311.5 L 1085.5 312 L 1085.5 311 Z " /><path fill="rgb(254,189,93)" stroke="rgb(254,189,93)" stroke-width="1" opacity="1" d="M 524.5 312 L 535 312.5 L 524 313 L 523.5 366 L 523 313.5 L 524.5 312 Z " /><path fill="rgb(254,189,93)" stroke="rgb(254,189,93)" stroke-width="1" opacity="1" d="M 716.5 312 L 728 312.5 L 716.5 313 L 716.5 312 Z " /><path fill="rgb(254,189,93)" stroke="rgb(254,189,93)" stroke-width="1" opacity="1" d="M 932.5 312 L 943.5 312 L 945 313.5 L 944.5 366 L 944 313 L 932.5 313 L 932.5 312 Z " /><path fill="rgb(254,189,93)" stroke="rgb(254,189,93)" stroke-width="1" opacity="1" d="M 1057.5 312 L 1069 312.5 L 1057 313 L 1056.5 366 L 1056 313.5 L 1057.5 312 Z " /><path fill="rgb(254,189,93)" stroke="rgb(254,189,93)" stroke-width="1" opacity="1" d="M 951.5 313 L 952 322.5 L 951 322.5 L 951.5 313 Z " /><path fill="rgb(254,189,93)" stroke="rgb(254,189,93)" stroke-width="1" opacity="1" d="M 986.5 313 L 987 322.5 L 986 322.5 L 986.5 313 Z " /><path fill="rgb(254,189,93)" stroke="rgb(254,189,93)" stroke-width="1" opacity="1" d="M 540.5 314 L 539.5 316 L 540.5 314 Z " /><path fill="rgb(254,189,93)" stroke="rgb(254,189,93)" stroke-width="1" opacity="1" d="M 598.5 314 L 601.5 318 L 598.5 314 Z " /><path fill="rgb(254,189,93)" stroke="rgb(254,189,93)" stroke-width="1" opacity="1" d="M 778.5 314 L 779.5 316 L 778.5 314 Z " /><path fill="rgb(254,189,93)" stroke="rgb(254,189,93)" stroke-width="1" opacity="1" d="M 749.5 315 L 747.5 318 L 749.5 315 Z " /><path fill="rgb(254,189,93)" stroke="rgb(254,189,93)" stroke-width="1" opacity="1" d="M 877.5 315 L 876.5 317 L 877.5 315 Z " /><path fill="rgb(254,189,93)" stroke="rgb(254,189,93)" stroke-width="1" opacity="1" d="M 572.5 316 L 569.5 320 L 567 318.5 L 568.5 319 L 572.5 316 Z " /><path fill="rgb(254,189,93)" stroke="rgb(254,189,93)" stroke-width="1" opacity="1" d="M 624.5 316 L 620.5 321 L 624.5 316 Z " /><path fill="rgb(254,189,93)" stroke="rgb(254,189,93)" stroke-width="1" opacity="1" d="M 1036.5 316 L 1039.5 320 L 1036.5 316 Z " /><path fill="rgb(254,189,93)" stroke="rgb(254,189,93)" stroke-width="1" opacity="1" d="M 1074.5 316 L 1069.5 322 L 1074.5 316 Z " /><path fill="rgb(254,189,93)" stroke="rgb(254,189,93)" stroke-width="1" opacity="1" d="M 1001.5 317 L 999.5 320 L 1001.5 317 Z " /><path fill="rgb(254,189,93)" stroke="rgb(254,189,93)" stroke-width="1" opacity="1" d="M 874.5 318 L 873.5 320 L 874.5 318 Z " /><path fill="rgb(254,189,93)" stroke="rgb(254,189,93)" stroke-width="1" opacity="1" d="M 682.5 319 L 681.5 321 L 682.5 319 Z " /><path fill="rgb(254,189,93)" stroke="rgb(254,189,93)" stroke-width="1" opacity="1" d="M 745.5 319 L 744.5 321 L 745.5 319 Z " /><path fill="rgb(254,189,93)" stroke="rgb(254,189,93)" stroke-width="1" opacity="1" d="M 1085.5 321 L 1089 321.5 L 1085.5 322 L 1085.5 321 Z " /><path fill="rgb(254,189,93)" stroke="rgb(254,189,93)" stroke-width="1" opacity="1" d="M 553.5 322 L 556.5 326 L 553.5 322 Z " /><path fill="rgb(254,189,93)" stroke="rgb(254,189,93)" stroke-width="1" opacity="1" d="M 695.5 323 L 692.5 327 L 695.5 323 Z " /><path fill="rgb(254,189,93)" stroke="rgb(254,189,93)" stroke-width="1" opacity="1" d="M 756.5 323 L 754.5 326 L 756.5 323 Z " /><path fill="rgb(254,189,93)" stroke="rgb(254,189,93)" stroke-width="1" opacity="1" d="M 772.5 323 L 775.5 327 L 772.5 323 Z " /><path fill="rgb(254,189,93)" stroke="rgb(254,189,93)" stroke-width="1" opacity="1" d="M 816.5 323 L 853.5 323 L 854 323.5 L 854 333.5 L 852.5 335 L 815.5 335 L 815.5 334 L 852.5 334 L 853 333.5 L 853 324 L 816.5 324 L 816.5 323 Z " /><path fill="rgb(254,189,93)" stroke="rgb(254,189,93)" stroke-width="1" opacity="1" d="M 973.5 323 L 974 353.5 L 973 353.5 L 973.5 323 Z " /><path fill="rgb(254,189,93)" stroke="rgb(254,189,93)" stroke-width="1" opacity="1" d="M 572.5 325 L 571.5 327 L 572.5 325 Z " /><path fill="rgb(254,189,93)" stroke="rgb(254,189,93)" stroke-width="1" opacity="1" d="M 617.5 325 L 620 326.5 L 617 327 L 617.5 325 Z " /><path fill="rgb(254,189,93)" stroke="rgb(254,189,93)" stroke-width="1" opacity="1" d="M 712.5 325 L 715.5 329 L 712.5 325 Z " /><path fill="rgb(254,189,93)" stroke="rgb(254,189,93)" stroke-width="1" opacity="1" d="M 624.5 327 L 627 327.5 L 624.5 328 L 624.5 327 Z " /><path fill="rgb(254,189,93)" stroke="rgb(254,189,93)" stroke-width="1" opacity="1" d="M 1008.5 327 L 1007.5 329 L 1008.5 327 Z " /><path fill="rgb(254,189,93)" stroke="rgb(254,189,93)" stroke-width="1" opacity="1" d="M 1030.5 327 L 1031.5 329 L 1030.5 327 Z " /><path fill="rgb(254,189,93)" stroke="rgb(254,189,93)" stroke-width="1" opacity="1" d="M 1072.5 327 L 1069.5 331 L 1072.5 327 Z " /><path fill="rgb(254,189,93)" stroke="rgb(254,189,93)" stroke-width="1" opacity="1" d="M 570.5 328 L 571 365.5 L 570 365.5 L 570.5 328 Z " /><path fill="rgb(254,189,93)" stroke="rgb(254,189,93)" stroke-width="1" opacity="1" d="M 907.5 328 L 908 351.5 L 905 353.5 L 907 351.5 L 907.5 328 Z " /><path fill="rgb(254,189,93)" stroke="rgb(254,189,93)" stroke-width="1" opacity="1" d="M 648.5 331 L 651 331.5 L 648.5 332 L 648.5 331 Z " /><path fill="rgb(254,189,93)" stroke="rgb(254,189,93)" stroke-width="1" opacity="1" d="M 868.5 331 L 869 333.5 L 868 333.5 L 868.5 331 Z " /><path fill="rgb(254,189,93)" stroke="rgb(254,189,93)" stroke-width="1" opacity="1" d="M 676.5 334 L 677 343.5 L 676 343.5 L 676.5 334 Z " /><path fill="rgb(254,189,93)" stroke="rgb(254,189,93)" stroke-width="1" opacity="1" d="M 751.5 334 L 778 334.5 L 751.5 335 L 751.5 334 Z " /><path fill="rgb(254,189,93)" stroke="rgb(254,189,93)" stroke-width="1" opacity="1" d="M 1005.5 334 L 1006 336.5 L 1005 336.5 L 1005.5 334 Z " /><path fill="rgb(254,189,93)" stroke="rgb(254,189,93)" stroke-width="1" opacity="1" d="M 1033.5 334 L 1034 337.5 L 1033 337.5 L 1033.5 334 Z " /><path fill="rgb(254,189,93)" stroke="rgb(254,189,93)" stroke-width="1" opacity="1" d="M 880.5 335 L 881 343.5 L 880 343.5 L 880.5 335 Z " /><path fill="rgb(254,189,93)" stroke="rgb(254,189,93)" stroke-width="1" opacity="1" d="M 624.5 338 L 623.5 340 L 624.5 338 Z " /><path fill="rgb(254,189,93)" stroke="rgb(254,189,93)" stroke-width="1" opacity="1" d="M 648.5 341 L 652 341.5 L 648.5 342 L 648.5 341 Z " /><path fill="rgb(254,189,93)" stroke="rgb(254,189,93)" stroke-width="1" opacity="1" d="M 1005.5 341 L 1006 344.5 L 1005 344.5 L 1005.5 341 Z " /><path fill="rgb(254,189,93)" stroke="rgb(254,189,93)" stroke-width="1" opacity="1" d="M 1033.5 341 L 1034 344.5 L 1033 344.5 L 1033.5 341 Z " /><path fill="rgb(254,189,93)" stroke="rgb(254,189,93)" stroke-width="1" opacity="1" d="M 868.5 345 L 869 347.5 L 868 347.5 L 868.5 345 Z " /><path fill="rgb(254,189,93)" stroke="rgb(254,189,93)" stroke-width="1" opacity="1" d="M 631.5 346 L 629.5 349 L 631.5 346 Z " /><path fill="rgb(254,189,93)" stroke="rgb(254,189,93)" stroke-width="1" opacity="1" d="M 715.5 349 L 713.5 352 L 715.5 349 Z " /><path fill="rgb(254,189,93)" stroke="rgb(254,189,93)" stroke-width="1" opacity="1" d="M 692.5 351 L 694.5 354 L 692.5 351 Z " /><path fill="rgb(254,189,93)" stroke="rgb(254,189,93)" stroke-width="1" opacity="1" d="M 883.5 351 L 884.5 353 L 883.5 351 Z " /><path fill="rgb(254,189,93)" stroke="rgb(254,189,93)" stroke-width="1" opacity="1" d="M 777.5 352 L 775.5 355 L 777.5 352 Z " /><path fill="rgb(254,189,93)" stroke="rgb(254,189,93)" stroke-width="1" opacity="1" d="M 788.5 352 Q 790.8 351.3 790 353.5 L 788.5 352 Z " /><path fill="rgb(254,189,93)" stroke="rgb(254,189,93)" stroke-width="1" opacity="1" d="M 628.5 353 L 631 356.5 L 628 354.5 L 628.5 353 Z " /><path fill="rgb(254,189,93)" stroke="rgb(254,189,93)" stroke-width="1" opacity="1" d="M 754.5 353 L 755.5 355 L 754.5 353 Z " /><path fill="rgb(254,189,93)" stroke="rgb(254,189,93)" stroke-width="1" opacity="1" d="M 886.5 354 L 887.5 356 L 886.5 354 Z " /><path fill="rgb(254,189,93)" stroke="rgb(254,189,93)" stroke-width="1" opacity="1" d="M 788.5 355 L 787.5 357 L 788.5 355 Z " /><path fill="rgb(254,189,93)" stroke="rgb(254,189,93)" stroke-width="1" opacity="1" d="M 961.5 356 L 962 359.5 L 961 359.5 L 961.5 356 Z " /><path fill="rgb(254,189,93)" stroke="rgb(254,189,93)" stroke-width="1" opacity="1" d="M 997.5 356 L 998.5 358 L 997.5 356 Z " /><path fill="rgb(254,189,93)" stroke="rgb(254,189,93)" stroke-width="1" opacity="1" d="M 1041.5 356 L 1040.5 358 L 1041.5 356 Z " /><path fill="rgb(254,189,93)" stroke="rgb(254,189,93)" stroke-width="1" opacity="1" d="M 634.5 357 L 639 357.5 L 634.5 358 L 634.5 357 Z " /><path fill="rgb(254,189,93)" stroke="rgb(254,189,93)" stroke-width="1" opacity="1" d="M 681.5 357 L 685.5 362 L 681.5 357 Z " /><path fill="rgb(254,189,93)" stroke="rgb(254,189,93)" stroke-width="1" opacity="1" d="M 762.5 357 L 769 357.5 L 762.5 358 L 762.5 357 Z " /><path fill="rgb(254,189,93)" stroke="rgb(254,189,93)" stroke-width="1" opacity="1" d="M 667.5 358 L 670 358.5 L 670 365.5 L 669 365.5 Q 670.5 358.5 667.5 359 L 667.5 358 Z " /><path fill="rgb(254,189,93)" stroke="rgb(254,189,93)" stroke-width="1" opacity="1" d="M 744.5 358 L 748.5 363 L 744.5 358 Z " /><path fill="rgb(254,189,93)" stroke="rgb(254,189,93)" stroke-width="1" opacity="1" d="M 786.5 358 L 782.5 363 L 786.5 358 Z " /><path fill="rgb(254,189,93)" stroke="rgb(254,189,93)" stroke-width="1" opacity="1" d="M 873.5 359 L 876.5 363 L 873.5 359 Z " /><path fill="rgb(254,189,93)" stroke="rgb(254,189,93)" stroke-width="1" opacity="1" d="M 714.5 360 L 713.5 362 L 714.5 360 Z " /><path fill="rgb(254,189,93)" stroke="rgb(254,189,93)" stroke-width="1" opacity="1" d="M 618.5 361 L 620.5 364 L 618.5 361 Z " /><path fill="rgb(254,189,93)" stroke="rgb(254,189,93)" stroke-width="1" opacity="1" d="M 649.5 362 L 648.5 364 L 649.5 362 Z " /><path fill="rgb(254,189,93)" stroke="rgb(254,189,93)" stroke-width="1" opacity="1" d="M 906.5 362 Q 909.5 361.1 908 365.5 L 907 365.5 L 906.5 363 L 905 363.5 L 906.5 362 Z " /><path fill="rgb(254,189,93)" stroke="rgb(254,189,93)" stroke-width="1" opacity="1" d="M 1003.5 362 L 1004.5 364 L 1003.5 362 Z " /><path fill="rgb(254,189,93)" stroke="rgb(254,189,93)" stroke-width="1" opacity="1" d="M 1035.5 362 L 1034.5 364 L 1035.5 362 Z " /><path fill="rgb(254,189,93)" stroke="rgb(254,189,93)" stroke-width="1" opacity="1" d="M 715.5 364 L 716 366.5 L 715 366.5 L 715.5 364 Z " /><path fill="rgb(254,189,93)" stroke="rgb(254,189,93)" stroke-width="1" opacity="1" d="M 665.5 366 L 668 366.5 L 665.5 367 L 665.5 366 Z " /><path fill="rgb(254,189,93)" stroke="rgb(254,189,93)" stroke-width="1" opacity="1" d="M 697.5 366 L 702 366.5 L 697.5 367 L 697.5 366 Z " /><path fill="rgb(254,189,93)" stroke="rgb(254,189,93)" stroke-width="1" opacity="1" d="M 632.5 367 L 636 367.5 L 632.5 368 L 632.5 367 Z " /><path fill="rgb(254,189,93)" stroke="rgb(254,189,93)" stroke-width="1" opacity="1" d="M 761.5 367 L 770 367.5 L 761.5 368 L 761.5 367 Z " /><path fill="rgb(254,189,93)" stroke="rgb(254,189,93)" stroke-width="1" opacity="1" d="M 888.5 367 L 896 367.5 L 888.5 368 L 888.5 367 Z " /><path fill="rgb(254,189,93)" stroke="rgb(254,189,93)" stroke-width="1" opacity="1" d="M 1015.5 367 L 1024 367.5 L 1015.5 368 L 1015.5 367 Z " /><path fill="rgb(254,189,93)" stroke="rgb(254,189,93)" stroke-width="1" opacity="1" d="M 687.5 370 L 693 374.5 L 688.5 371 L 687.5 370 Z " /><path fill="rgb(254,189,93)" stroke="rgb(254,189,93)" stroke-width="1" opacity="1" d="M 680.5 371 L 683 371.5 L 680.5 372 L 680.5 371 Z " /><path fill="rgb(254,189,93)" stroke="rgb(254,189,93)" stroke-width="1" opacity="1" d="M 713.5 371 L 711.5 374 L 713.5 371 Z " /><path fill="rgb(254,189,93)" stroke="rgb(254,189,93)" stroke-width="1" opacity="1" d="M 679.5 376 L 680.5 378 L 679.5 376 Z " /><path fill="rgb(254,189,93)" stroke="rgb(254,189,93)" stroke-width="1" opacity="1" d="M 698.5 376 L 705 376.5 L 698.5 377 L 698.5 376 Z " /><path fill="rgb(254,189,93)" stroke="rgb(254,189,93)" stroke-width="1" opacity="1" d="M 696.5 386 L 701 386.5 L 696.5 387 L 696.5 386 Z " /><path fill="rgb(254,189,93)" stroke="rgb(254,189,93)" stroke-width="1" opacity="1" d="M 702.5 386 L 708 386.5 L 702.5 387 L 702.5 386 Z " /><path fill="rgb(129,115,249)" stroke="rgb(129,115,249)" stroke-width="1" opacity="1" d="M 262.5 83 L 271 83.5 L 269 85.5 Q 272.5 87 270 88.5 L 271 91.5 L 269 93.5 Q 272.5 95 270 96.5 L 271 99.5 L 269 101.5 Q 272.5 103 270 104.5 L 271 107.5 L 269 109.5 Q 272.5 111 270 112.5 L 271 115.5 L 269 117.5 Q 272.5 119 270 120.5 L 271 123.5 L 269 125.5 Q 272.5 127 270 128.5 L 271 131.5 L 269 133.5 Q 272.5 135 270 136.5 L 271 139.5 L 269 141.5 Q 272.5 143 270 144.5 L 271 147.5 L 269 149.5 Q 272.5 151 270 152.5 L 271 155.5 L 269 157.5 Q 272.5 159 270 160.5 L 271 163.5 L 269 165.5 Q 272.7 167.3 269.5 169 L 225.5 168 Q 214 171 208 179.5 Q 199.7 189.7 195 203.5 L 187 232.5 L 186 242 L 194 244 Q 197.1 233.8 205.5 228 Q 214.2 224.2 228.5 226 L 229.5 227 L 244 227 L 242 253.5 L 234 285.5 L 226 302.5 L 195 344.5 L 191 352.5 L 190 368.5 Q 192.8 378.8 200.5 384 Q 207.8 390.2 223.5 388 Q 235.1 384.6 241 375.5 L 248 359.5 L 251 343.5 L 251 334.5 L 252 333.5 L 253 281.5 L 254 280.5 L 254 228 Q 258.9 230.1 268.5 229 L 271 231.5 L 270 234.5 L 270 240.5 L 271 243.5 L 269 245.5 Q 272.5 247 270 248.5 L 271 251.5 Q 267.5 253 270 254.5 L 271 257.5 L 269 259.5 Q 272.5 261 270 262.5 L 271 265.5 L 269 267.5 Q 272.5 269 270 270.5 L 271 273.5 L 269 275.5 Q 272.5 277 270 278.5 L 271 281.5 L 269 283.5 Q 272.5 285 270 286.5 L 271 289.5 L 269 291.5 Q 272.5 293 270 294.5 L 271 297.5 L 269 299.5 Q 272.5 301 270 302.5 L 271 305.5 L 269 307.5 Q 272.5 309 270 310.5 L 271 313.5 L 269 315.5 Q 272.5 317 270 318.5 L 271 321.5 L 269 323.5 Q 272.5 325 270 326.5 L 271 329.5 L 269 331.5 Q 272.5 333 270 334.5 L 271 337.5 L 269 339.5 Q 272.5 341 270 342.5 L 271 345.5 L 269 347.5 Q 272.5 349 270 350.5 L 271 353.5 L 269 355.5 Q 272.5 357 270 358.5 L 271 361.5 L 269 363.5 Q 272.5 365 270 366.5 L 271 369.5 L 269 371.5 Q 272.5 373 270 374.5 L 271 377.5 L 269 379.5 Q 272.5 381 270 382.5 L 271 385.5 L 269 387.5 Q 272.5 389 270 390.5 L 271 393.5 L 269 395.5 Q 272.5 397 270 398.5 L 271 401.5 L 269 403.5 Q 272.5 405 270 406.5 L 271 409.5 L 269 411.5 Q 272.5 413 270 414.5 L 271 417.5 L 269 419.5 Q 272.5 421 270 422.5 L 271 425.5 L 269 427.5 Q 272.5 429 270 430.5 L 271 433.5 L 269 435.5 Q 272.5 437 270 438.5 L 271 441.5 L 268.5 443 L 267.5 442 L 260.5 442 L 259.5 441 L 252.5 441 L 242.5 439 L 212.5 429 Q 175.9 413.1 151 385.5 Q 135.4 368.6 124 347.5 Q 115.5 331.5 110 312.5 L 104 281.5 L 104 243.5 L 110 212.5 L 115 197.5 L 127 172.5 Q 142.8 144.8 166.5 125 Q 185.6 108.1 210.5 97 L 232.5 89 L 262.5 83 Z " /><path fill="rgb(129,115,249)" stroke="rgb(129,115,249)" stroke-width="1" opacity="1" d="M 492 256 L 772 256.5 Q 766.5 256 765 259.5 L 767 261.5 L 765.5 269 L 492.5 269 L 492 268.5 L 492 256 Z " /></svg>